<svg width="86" height="91" viewBox="0 0 86 91" fill="none" xmlns="http://www.w3.org/2000/svg">
<path d="M80.4016 6.445C76.7116 2.34912 71.4361 0 65.9278 0H20.1078C14.5995 0 9.32399 2.34912 5.63405 6.445C1.93948 10.5459 0.147388 16.0491 0.717204 21.543L6.10647 73.4926C7.14195 83.4735 15.478 91 25.4969 91H60.5385C70.5576 91 78.8937 83.4735 79.929 73.4926L85.3182 21.543C85.8882 16.0491 84.0961 10.5459 80.4016 6.445ZM80.0148 20.992L74.6256 72.9417C73.8732 80.1945 67.8171 85.6641 60.5387 85.6641H45.6838V50.42C45.6838 48.9466 44.4902 47.7521 43.0178 47.7521C41.5455 47.7521 40.3518 48.9466 40.3518 50.42V85.6641H25.4969C18.2185 85.6641 12.1624 80.1946 11.4101 72.9417L6.0208 20.992C5.6065 16.9983 6.90894 12.9986 9.59415 10.018C12.2747 7.04255 16.1069 5.33612 20.1077 5.33612H65.9278C69.9286 5.33612 73.7607 7.04273 76.4413 10.018C79.1267 12.9986 80.4291 16.9983 80.0148 20.992Z" fill="#EAAB00"/>
<path d="M66.0177 20.1405C59.8744 13.9866 51.706 10.5978 43.0175 10.5978C34.329 10.5978 26.1606 13.9868 20.0172 20.1407C18.9773 21.1824 18.9773 22.8703 20.0172 23.912L30.8816 34.7947C31.3816 35.2957 32.0602 35.5771 32.7676 35.5771C33.4751 35.5771 34.1535 35.2957 34.6537 34.7947C36.8878 32.5567 39.8583 31.3243 43.0175 31.3243C46.1767 31.3243 49.1472 32.5567 51.3813 34.7947C51.8815 35.2957 52.5599 35.5771 53.2674 35.5771C53.9748 35.5771 54.6534 35.2957 55.1534 34.7947L66.0177 23.912C67.0577 22.8702 67.0577 21.1822 66.0177 20.1405ZM53.1226 29.2791C50.9197 27.6651 48.3806 26.6131 45.6835 26.1941V23.0873C45.6835 21.6139 44.4898 20.4194 43.0175 20.4194C41.5451 20.4194 40.3515 21.6139 40.3515 23.0873V26.1941C37.6542 26.6131 35.1152 27.6653 32.9122 29.2791L25.7622 22.1167C30.6145 18.1119 36.6487 15.9337 43.0175 15.9337C49.3863 15.9337 55.4205 18.1119 60.2728 22.1167L53.1226 29.2791Z" fill="#EAAB00"/>
<path d="M68.4793 74.8242C68.2424 73.6857 67.2897 72.8076 66.1279 72.6898C64.982 72.5736 63.8701 73.2402 63.4162 74.2942C63.0015 75.2568 63.2041 76.4046 63.9199 77.1691C64.7088 78.0115 65.9963 78.2508 67.0327 77.7408C68.1172 77.2076 68.7007 76.0062 68.4793 74.8242Z" fill="#EAAB00"/>
<path d="M57.8153 74.8242C57.5783 73.6857 56.6259 72.8076 55.4638 72.6898C54.3182 72.5736 53.2061 73.2404 52.7521 74.2942C52.3375 75.2568 52.5399 76.4046 53.2558 77.1691C54.0448 78.0115 55.3321 78.2508 56.3687 77.7408C57.4532 77.2076 58.0367 76.0062 57.8153 74.8242Z" fill="#EAAB00"/>
<path d="M68.4788 64.1414C68.2417 63.0053 67.2889 62.1227 66.1274 62.007C64.9799 61.8927 63.8721 62.5578 63.4157 63.6118C62.9998 64.5722 63.2038 65.7257 63.9194 66.4882C64.7121 67.3328 65.9943 67.5647 67.0335 67.0582C68.1198 66.5289 68.6992 65.3203 68.4788 64.1414Z" fill="#EAAB00"/>
<path d="M57.8152 64.1415C57.5821 63.0242 56.6638 62.1599 55.5281 62.0147C54.3973 61.8702 53.2795 62.499 52.7924 63.523C52.3527 64.4474 52.4952 65.5701 53.1438 66.3603C53.8561 67.2284 55.0796 67.5533 56.1297 67.1617C57.3522 66.706 58.0531 65.4148 57.8152 64.1415Z" fill="#EAAB00"/>
<path d="M68.4788 53.459C68.2465 52.3656 67.3673 51.5109 66.2563 51.3426C65.1557 51.1759 64.0358 51.7425 63.5147 52.7245C62.9913 53.7107 63.1417 54.9406 63.8887 55.7714C64.6348 56.6012 65.8571 56.8678 66.8846 56.4434C68.0558 55.9598 68.7102 54.6948 68.4788 53.459Z" fill="#EAAB00"/>
<path d="M57.8148 53.459C57.5825 52.3656 56.7032 51.5109 55.5922 51.3426C54.4917 51.1759 53.3718 51.7425 52.8507 52.7245C52.3272 53.7107 52.4776 54.9406 53.2246 55.7714C53.9707 56.6012 55.193 56.8678 56.2205 56.4434C57.3918 55.9598 58.0462 54.6948 57.8148 53.459Z" fill="#EAAB00"/>
<path d="M33.4491 74.8241C33.2172 73.7094 32.2964 72.8385 31.1612 72.697C30.0375 72.5571 28.9045 73.1755 28.426 74.2045C27.9518 75.2247 28.1612 76.4644 28.9724 77.2536C29.7878 78.0468 31.0503 78.2368 32.0605 77.7116C33.1109 77.1656 33.6658 75.9807 33.4491 74.8241Z" fill="#EAAB00"/>
<path d="M22.7853 74.8241C22.5532 73.7092 21.6327 72.8385 20.4973 72.697C19.3686 72.5564 18.2472 73.1772 17.7625 74.2045C17.3253 75.1311 17.4634 76.2492 18.1137 77.0412C18.8297 77.913 20.045 78.2302 21.0997 77.8435C22.3227 77.3952 23.0226 76.091 22.7853 74.8241Z" fill="#EAAB00"/>
<path d="M33.4492 64.1416C33.2162 63.0251 32.2969 62.159 31.1612 62.0148C30.0365 61.8721 28.9049 62.4969 28.4248 63.5231C27.9906 64.451 28.1271 65.5678 28.7776 66.3604C29.4909 67.2296 30.7119 67.5514 31.7628 67.1619C32.9856 66.7088 33.687 65.4137 33.4492 64.1416Z" fill="#EAAB00"/>
<path d="M21.8612 62.5994C20.9585 61.8634 19.6602 61.8026 18.6904 62.4446C17.7312 63.0796 17.2935 64.3055 17.6114 65.4065C17.9329 66.5195 18.9789 67.3173 20.1381 67.3301C21.2379 67.3422 22.2549 66.6542 22.6536 65.6303C23.0666 64.5699 22.7455 63.3204 21.8612 62.5994Z" fill="#EAAB00"/>
<path d="M33.4477 53.4591C33.239 52.3654 32.3219 51.5078 31.2267 51.3427C30.1271 51.177 29.0049 51.742 28.4836 52.7246C27.9601 53.7113 28.1132 54.9413 28.8593 55.7714C29.6047 56.6009 30.8281 56.8686 31.8552 56.4435C33.0096 55.9657 33.7042 54.6885 33.4477 53.4591Z" fill="#EAAB00"/>
<path d="M22.7836 53.4591C22.575 52.3654 21.6579 51.5078 20.5627 51.3427C19.463 51.177 18.3406 51.742 17.8195 52.7246C17.2961 53.7113 17.4491 54.9413 18.1952 55.7714C18.9407 56.6009 20.164 56.8686 21.1911 56.4435C22.3455 55.9657 23.0401 54.6885 22.7836 53.4591Z" fill="#EAAB00"/>
</svg>
