<svg width="91" height="92" viewBox="0 0 91 92" fill="none" xmlns="http://www.w3.org/2000/svg">
<path d="M42.8583 56.4343H33.9492V47.5251C33.9492 46.0527 32.7554 44.8589 31.283 44.8589C29.8106 44.8589 28.6168 46.0527 28.6168 47.5251V56.4343H19.7077C18.2352 56.4343 17.0415 57.628 17.0415 59.1004C17.0415 60.5729 18.2352 61.7666 19.7077 61.7666H28.6168V70.6757C28.6168 72.1482 29.8106 73.3419 31.283 73.3419C32.7554 73.3419 33.9492 72.1482 33.9492 70.6757V61.7666H42.8583C44.3307 61.7666 45.5245 60.5729 45.5245 59.1004C45.5245 57.628 44.3307 56.4343 42.8583 56.4343Z" fill="#EAAB00"/>
<path d="M87.5591 53.6244L86.6398 52.7051C82.1978 48.2628 74.9799 48.0839 70.331 52.3901C70.0132 52.6844 70.8299 51.8746 62.3886 60.3161V34.7083C62.3886 30.7059 58.6195 27.195 54.3225 27.195H51.0129V21.1517H52.7706C55.6219 21.1517 58.1227 18.7002 58.1227 15.9055V5.58529C58.1227 2.9488 55.8339 0 52.7706 0H9.79572C6.73246 0 4.44363 2.9488 4.44363 5.58529V15.9055C4.44363 18.7002 6.94451 21.1517 9.79572 21.1517H11.198V27.195H8.42158C4.26233 27.195 0 30.6227 0 34.7083V83.1813C0 87.1301 4.17151 91.0056 8.42158 91.0056H54.3225C55.4674 91.0056 56.6293 90.7294 57.7077 90.2125C61.9995 91.8624 66.9305 90.8933 70.2647 87.5593L87.5593 70.2647C92.1469 65.6769 92.1469 58.2121 87.5591 53.6244ZM73.7702 56.4757C76.2524 53.9806 80.3475 53.955 82.869 56.4765L83.7877 57.3952C86.2008 59.8083 86.3036 63.6958 84.0369 66.2306C83.8404 66.4489 84.5378 65.7448 77.2233 73.0594L67.2048 63.0409L73.7702 56.4757ZM33.9494 15.8193V5.33236H40.4991V15.8193H33.9494ZM21.6385 15.8193V5.33236H28.617V15.8193H21.6385ZM52.7904 5.64022V15.7674C52.7081 15.8481 53.2255 15.8193 45.8315 15.8193V5.33236H52.5778C52.6631 5.41057 52.7596 5.54743 52.7904 5.64022ZM9.77599 15.7674V5.64022C9.80674 5.54761 9.90326 5.41057 9.98858 5.33236H16.3062V15.8193C9.40362 15.8193 9.85811 15.848 9.77599 15.7674ZM16.5303 21.1517H45.6806V27.195H16.5303V21.1517ZM5.33236 83.1813V34.7083C5.33236 33.9266 6.88941 32.5274 8.42158 32.5274H54.3225C55.7047 32.5274 57.0563 33.7762 57.0563 34.7083V65.6487L52.7052 69.9999C48.4269 74.2782 48.1402 81.0576 51.8414 85.6733H8.42158C6.96886 85.6733 5.33236 84.0476 5.33236 83.1813ZM66.4942 83.7888C63.9773 86.3057 59.9061 86.3 57.395 83.7888L56.4757 82.8695C53.9615 80.3553 53.961 76.2851 56.4757 73.7704C62.4905 67.7556 57.1693 73.0768 63.4345 66.8115L73.4531 76.8299L66.4942 83.7888Z" fill="#EAAB00"/>
</svg>
