<svg width="92" height="91" viewBox="0 0 92 91" fill="none" xmlns="http://www.w3.org/2000/svg">
<path d="M78.9173 46.1226L84.0789 40.961C93.4549 31.585 93.4559 16.4092 84.0789 7.03233C74.7032 -2.34349 59.5272 -2.34473 50.1504 7.03233C48.1491 9.03326 8.95892 48.2238 7.14373 50.039C-2.23227 59.415 -2.23334 74.5908 7.14373 83.9677C16.5194 93.3435 31.6954 93.3447 41.0722 83.9677L46.234 78.8061C50.3603 86.0774 58.1736 90.9946 67.1145 90.9946C80.3433 90.9946 91.1058 80.2321 91.1058 67.0033C91.1058 58.0622 86.1888 50.2489 78.9173 46.1226ZM43.1233 67.0031C43.1233 69.2488 43.4343 71.4232 44.0139 73.4863L37.3025 80.1978C30.0103 87.4898 18.2068 87.4909 10.9136 80.1978C3.62139 72.9057 3.62033 61.102 10.9136 53.8089L30.3693 34.3532L48.2337 52.2175C45.0336 56.2949 43.1233 61.4301 43.1233 67.0031ZM64.4487 85.4718C55.4179 84.1744 48.4546 76.3873 48.4546 67.0031C48.4546 57.619 55.4179 49.8319 64.4487 48.5345V85.4718ZM51.968 48.4123L34.139 30.5833L53.9201 10.8022C61.2123 3.51018 73.0158 3.50911 80.309 10.8022C87.6012 18.0943 87.6023 29.898 80.309 37.1911L73.5976 43.9025C71.5344 43.3228 69.3602 43.0119 67.1145 43.0119C61.3755 43.0119 56.1014 45.0386 51.968 48.4123ZM69.7802 85.4718V48.5346C78.811 49.8321 85.7743 57.6191 85.7743 67.0033C85.7743 76.3873 78.811 84.1744 69.7802 85.4718Z" fill="#EAAB00"/>
</svg>
