<svg width="92" height="96" viewBox="0 0 92 96" fill="none" xmlns="http://www.w3.org/2000/svg">
<path d="M77.4912 55.4949V39.7441H79.3179C80.8676 39.7441 82.1239 38.4878 82.1239 36.9381C82.1239 35.3884 80.8676 34.1321 79.3179 34.1321H56.2767C54.7271 34.1321 53.4707 35.3884 53.4707 36.9381C53.4707 38.4878 54.7271 39.7441 56.2767 39.7441H58.4692V55.4949C50.1153 59.2177 44.6323 67.5493 44.6323 76.823C44.6323 83.9421 47.8213 90.583 53.3817 95.0431C53.8797 95.4427 54.499 95.6602 55.1375 95.6602H80.8234C81.4619 95.6602 82.0813 95.4425 82.5792 95.0431C88.1397 90.5828 91.3286 83.9417 91.3286 76.823C91.3282 67.5493 85.8451 59.2175 77.4912 55.4949ZM62.1907 60.0541C63.3221 59.6635 64.081 58.5985 64.081 57.4016V39.7441H71.8791V57.4016C71.8791 58.5985 72.6383 59.6637 73.7695 60.0541C78.7024 61.7568 82.517 65.4961 84.4071 70.1369H51.5533C53.4432 65.4961 57.2577 61.7568 62.1907 60.0541ZM79.7966 90.0482H56.1638C52.39 86.6791 50.2442 81.9115 50.2442 76.8229C50.2442 76.4626 50.2586 76.1049 50.2801 75.7487H85.6803C85.7018 76.1049 85.7162 76.4626 85.7162 76.8229C85.7162 81.9113 83.5703 86.6791 79.7966 90.0482Z" fill="#EAAB00"/>
<path d="M56.9049 20.2627L58.4509 21.8087C58.9988 22.3566 59.7169 22.6306 60.4349 22.6306C61.1529 22.6306 61.8712 22.3568 62.419 21.8087C63.5148 20.7128 63.5148 18.9362 62.419 17.8404L45.4005 0.821883C44.3048 -0.273961 42.528 -0.273961 41.4322 0.821883C40.3363 1.91773 40.3363 3.69431 41.4322 4.79015L42.9783 6.33627L32.6434 16.6712L3.51239 29.063C1.74516 29.8148 0.471788 31.3892 0.10607 33.2746C-0.259648 35.1601 0.332796 37.0964 1.69091 38.4542L25.0076 61.7709C26.1021 62.8654 27.5691 63.462 29.0838 63.462C29.4589 63.462 29.837 63.4255 30.213 63.3507C32.1067 62.9745 33.679 61.685 34.4188 59.9015L46.5792 30.5887L56.9049 20.2627ZM35.3409 21.6223C35.6716 21.4817 35.9724 21.2785 36.2265 21.0243L46.9453 10.3055L52.9354 16.2956L43.0385 26.1924H24.597L35.3409 21.6223ZM29.235 57.7511V57.7513C29.2221 57.7826 29.2024 57.8297 29.1194 57.8462C29.0344 57.8623 28.9983 57.825 28.9757 57.8026L5.65918 34.4859C5.63692 34.4634 5.59951 34.4262 5.61559 34.3431C5.63168 34.2601 5.68032 34.2393 5.7095 34.227L11.4046 31.8044H39.9989L29.235 57.7511Z" fill="#EAAB00"/>
<path d="M69.267 15.6061C70.8167 15.6061 72.073 14.3498 72.073 12.8C72.073 11.2503 70.8167 9.99402 69.267 9.99402C67.7172 9.99402 66.4609 11.2503 66.4609 12.8C66.4609 14.3498 67.7172 15.6061 69.267 15.6061Z" fill="#EAAB00"/>
<path d="M73.4388 27.6865C74.9886 27.6865 76.2449 26.4302 76.2449 24.8805C76.2449 23.3308 74.9886 22.0745 73.4388 22.0745C71.8891 22.0745 70.6328 23.3308 70.6328 24.8805C70.6328 26.4302 71.8891 27.6865 73.4388 27.6865Z" fill="#EAAB00"/>
</svg>
