<svg width="86" height="91" fill="none" xmlns="http://www.w3.org/2000/svg"><path d="M80.402 6.445A19.512 19.512 0 0065.928 0h-45.82A19.512 19.512 0 005.634 6.445 19.575 19.575 0 00.717 21.543l5.39 51.95A19.46 19.46 0 0025.496 91h35.041A19.46 19.46 0 0079.93 73.493l5.39-51.95a19.574 19.574 0 00-4.917-15.098zm-.387 14.547l-5.39 51.95A14.139 14.139 0 0160.54 85.664H45.684V50.42a2.667 2.667 0 10-5.332 0v35.244H25.497A14.139 14.139 0 0111.41 72.942l-5.39-51.95a14.227 14.227 0 013.574-10.974 14.174 14.174 0 0110.514-4.682h45.82c4 0 7.833 1.707 10.513 4.682a14.227 14.227 0 013.574 10.974z" fill="#EAAB00"/><path d="M66.018 20.14c-6.144-6.153-14.312-9.542-23-9.542-8.689 0-16.857 3.389-23 9.543a2.67 2.67 0 000 3.771l10.864 10.883a2.665 2.665 0 003.772 0 11.74 11.74 0 018.363-3.47c3.16 0 6.13 1.232 8.364 3.47a2.665 2.665 0 003.772 0l10.865-10.883a2.67 2.67 0 000-3.771zm-12.895 9.14a16.96 16.96 0 00-7.44-3.086v-3.107a2.667 2.667 0 10-5.331 0v3.107a16.963 16.963 0 00-7.44 3.085l-7.15-7.162c4.852-4.005 10.887-6.183 17.255-6.183 6.37 0 12.403 2.178 17.256 6.183l-7.15 7.162zM68.48 74.824a2.699 2.699 0 00-2.352-2.134 2.689 2.689 0 00-2.712 1.604 2.69 2.69 0 00.504 2.875 2.686 2.686 0 003.113.572 2.696 2.696 0 001.446-2.917zm-10.665 0a2.699 2.699 0 00-2.351-2.134 2.69 2.69 0 00-2.712 1.604 2.69 2.69 0 00.504 2.875 2.686 2.686 0 003.113.572 2.696 2.696 0 001.446-2.917zm10.664-10.683c-.237-1.136-1.19-2.018-2.352-2.134a2.693 2.693 0 00-2.711 1.605 2.69 2.69 0 00.503 2.876 2.69 2.69 0 003.115.57c1.086-.53 1.665-1.738 1.445-2.917zm-10.664 0a2.7 2.7 0 00-2.287-2.126c-1.13-.145-2.248.484-2.736 1.508a2.69 2.69 0 00.352 2.837 2.687 2.687 0 002.986.802c1.222-.456 1.923-1.747 1.685-3.02zm10.664-10.682a2.7 2.7 0 00-2.223-2.116c-1.1-.167-2.22.4-2.741 1.381a2.694 2.694 0 00.374 3.047 2.686 2.686 0 002.996.672c1.17-.483 1.825-1.748 1.594-2.984zm-10.664 0a2.7 2.7 0 00-2.223-2.116c-1.1-.167-2.22.4-2.741 1.381a2.694 2.694 0 00.374 3.047 2.686 2.686 0 002.995.672c1.172-.483 1.826-1.748 1.595-2.984zM33.45 74.824a2.699 2.699 0 00-2.289-2.127 2.686 2.686 0 00-2.735 1.507c-.474 1.02-.265 2.26.546 3.05a2.688 2.688 0 003.088.458 2.697 2.697 0 001.39-2.888zm-10.665 0a2.699 2.699 0 00-2.288-2.127 2.687 2.687 0 00-2.735 1.507 2.69 2.69 0 00.352 2.837 2.69 2.69 0 002.986.803c1.223-.449 1.923-1.753 1.685-3.02zM33.45 64.142a2.7 2.7 0 00-2.289-2.127 2.688 2.688 0 00-2.736 1.508 2.698 2.698 0 00.353 2.837 2.688 2.688 0 002.985.802c1.223-.453 1.924-1.748 1.686-3.02zM21.861 62.6a2.694 2.694 0 00-3.17-.155c-.96.635-1.397 1.86-1.08 2.961a2.69 2.69 0 002.527 1.924 2.69 2.69 0 002.516-1.7 2.691 2.691 0 00-.793-3.03zm11.587-9.14c-.209-1.095-1.126-1.952-2.221-2.117a2.685 2.685 0 00-2.743 1.382 2.696 2.696 0 00.375 3.046 2.685 2.685 0 002.996.672c1.155-.477 1.85-1.755 1.593-2.984zm-10.664 0c-.209-1.095-1.126-1.952-2.221-2.117a2.685 2.685 0 00-2.743 1.382 2.696 2.696 0 00.375 3.046 2.685 2.685 0 002.996.672c1.155-.477 1.85-1.755 1.593-2.984z" fill="#EAAB00"/></svg>