<svg width="91" height="92" fill="none" xmlns="http://www.w3.org/2000/svg"><path d="M42.858 56.434H33.95v-8.909a2.666 2.666 0 00-5.332 0v8.91h-8.91a2.666 2.666 0 100 5.332h8.91v8.909a2.666 2.666 0 005.332 0v-8.91h8.91a2.666 2.666 0 000-5.332z" fill="#EAAB00"/><path d="M87.56 53.624l-.92-.919c-4.442-4.442-11.66-4.621-16.309-.315-.318.294.499-.515-7.942 7.926V34.708c0-4.002-3.77-7.513-8.067-7.513h-3.31v-6.043h1.759c2.85 0 5.352-2.452 5.352-5.247V5.585C58.123 2.95 55.833 0 52.77 0H9.796C6.732 0 4.444 2.949 4.444 5.585v10.32c0 2.795 2.5 5.247 5.352 5.247h1.402v6.043H8.422C4.262 27.195 0 30.623 0 34.708v48.473c0 3.95 4.172 7.825 8.422 7.825h45.9a7.869 7.869 0 003.386-.793c4.291 1.65 9.222.68 12.557-2.654l17.294-17.294c4.588-4.588 4.588-12.053 0-16.64zm-13.79 2.852c2.482-2.495 6.578-2.521 9.099 0l.919.92a6.44 6.44 0 01.249 8.835c-.197.218.5-.486-6.814 6.828L67.205 63.041l6.565-6.565zM33.95 15.819V5.332h6.55V15.82h-6.55zm-12.312 0V5.332h6.979V15.82h-6.979zM52.79 5.64v10.127c-.082.081.435.052-6.959.052V5.332h6.747a.887.887 0 01.212.308zM9.776 15.767V5.64a.888.888 0 01.213-.308h6.317V15.82c-6.902 0-6.448.029-6.53-.052zm6.754 5.385h29.15v6.043H16.53v-6.043zM5.332 83.182V34.707c0-.781 1.557-2.18 3.09-2.18h45.9c1.383 0 2.734 1.248 2.734 2.18v30.94L52.706 70c-4.28 4.278-4.566 11.058-.865 15.673H8.421c-1.452 0-3.089-1.625-3.089-2.492zm61.162.607a6.432 6.432 0 01-9.099 0l-.92-.92a6.43 6.43 0 010-9.099l6.96-6.959L73.453 76.83l-6.959 6.959z" fill="#EAAB00"/></svg>