<svg width="92" height="91" fill="none" xmlns="http://www.w3.org/2000/svg"><path d="M78.917 46.123l5.162-5.162c9.376-9.376 9.377-24.552 0-33.929-9.376-9.375-24.552-9.377-33.929 0L7.144 50.04c-9.376 9.376-9.377 24.552 0 33.929 9.375 9.376 24.551 9.377 33.928 0l5.162-5.162c4.126 7.271 11.94 12.189 20.88 12.189 13.23 0 23.992-10.763 23.992-23.992 0-8.94-4.917-16.754-12.189-20.88zm-35.794 20.88c0 2.246.311 4.42.89 6.483l-6.71 6.712c-7.293 7.292-19.096 7.293-26.39 0-7.292-7.292-7.293-19.096 0-26.39L30.37 34.354l17.865 17.864a23.873 23.873 0 00-5.11 14.786zM64.45 85.472c-9.031-1.298-15.994-9.085-15.994-18.469s6.963-17.171 15.994-18.468v36.937zm-12.481-37.06l-17.83-17.829 19.781-19.78c7.292-7.293 19.096-7.294 26.389 0 7.292 7.291 7.293 19.095 0 26.388l-6.711 6.712a23.934 23.934 0 00-6.483-.891 23.88 23.88 0 00-15.147 5.4zm17.812 37.06V48.535c9.031 1.297 15.994 9.084 15.994 18.468S78.811 84.174 69.78 85.472z" fill="#EAAB00"/></svg>