<svg width="92" height="96" fill="none" xmlns="http://www.w3.org/2000/svg"><path d="M77.491 55.495v-15.75h1.827a2.806 2.806 0 000-5.613H56.277a2.806 2.806 0 000 5.612h2.192v15.75a23.362 23.362 0 00-13.837 21.329c0 7.12 3.19 13.76 8.75 18.22.498.4 1.117.617 1.756.617h25.685c.639 0 1.258-.218 1.756-.617 5.56-4.46 8.75-11.101 8.75-18.22A23.363 23.363 0 0077.49 55.495zm-15.3 4.56a2.806 2.806 0 001.89-2.653V39.744h7.798v17.658c0 1.197.76 2.262 1.89 2.652a17.737 17.737 0 0110.638 10.083H51.553a17.736 17.736 0 0110.638-10.083zm17.606 29.993H56.164a17.653 17.653 0 01-5.884-14.3h35.4a17.654 17.654 0 01-5.884 14.3zM56.905 20.263l1.546 1.546a2.797 2.797 0 001.984.822 2.806 2.806 0 001.984-4.79L45.401.82a2.806 2.806 0 10-3.969 3.97l1.546 1.545L32.643 16.67 3.513 29.062a5.764 5.764 0 00-3.407 4.212 5.763 5.763 0 001.585 5.18L25.008 61.77a5.759 5.759 0 005.205 1.58 5.76 5.76 0 004.206-3.45l12.16-29.312 10.326-10.326zm-21.564 1.36c.33-.141.631-.345.886-.599l10.718-10.719 5.99 5.99-9.897 9.897h-18.44l10.744-4.57zM29.235 57.75c-.013.032-.033.079-.116.095-.085.016-.12-.021-.143-.043L5.659 34.486c-.022-.023-.06-.06-.043-.143.016-.083.064-.104.094-.116l5.695-2.423h28.594L29.235 57.751zm40.032-42.144a2.806 2.806 0 100-5.612 2.806 2.806 0 000 5.612zm4.172 12.08a2.806 2.806 0 100-5.612 2.806 2.806 0 000 5.612z" fill="#EAAB00"/></svg>