<svg viewBox="0 0 138 138" xmlns="http://www.w3.org/2000/svg" xmlns:xlink="http://www.w3.org/1999/xlink"><style>:root&gt;svg{display:none}:root&gt;svg:target{display:block}</style><svg viewBox="0 0 44 44" id="arrow-left" xmlns="http://www.w3.org/2000/svg"><path fill-rule="evenodd" clip-rule="evenodd" d="M27.993 6.46L21.533 0 6.46 15.073 0 21.533l21.533 21.533 6.46-6.46L12.92 21.533 27.993 6.46z"/></svg><svg viewBox="0 0 42 42" id="arrow-right" xmlns="http://www.w3.org/2000/svg"><path fill-rule="evenodd" clip-rule="evenodd" d="M14.474 35.152l6.204 6.203 14.474-14.474 6.203-6.203-6.203-6.204L20.678 0l-6.204 6.203L28.95 20.678 14.474 35.152z"/></svg><svg viewBox="0 0 25 25" id="calendar" xmlns="http://www.w3.org/2000/svg"><path d="M21.777 1.953h-2.246V.781a.781.781 0 10-1.562 0v1.172H7.03V.781a.781.781 0 00-1.562 0v1.172H3.223A3.226 3.226 0 000 5.176v16.601A3.226 3.226 0 003.223 25h18.554A3.226 3.226 0 0025 21.777V5.176a3.226 3.226 0 00-3.223-3.223zm1.66 19.824a1.66 1.66 0 01-1.66 1.66H3.223a1.66 1.66 0 01-1.66-1.66V8.837c0-.134.109-.243.244-.243h21.386c.135 0 .244.11.244.244v12.94z"/></svg><svg viewBox="0 0 21 16" id="check" xmlns="http://www.w3.org/2000/svg"><path fill-rule="evenodd" clip-rule="evenodd" d="M6.898 15.678l2.509-2.509 10.66-10.66L17.56 0 6.9 10.66 2.51 6.271 0 8.78l6.898 6.898z"/></svg><svg viewBox="0 0 88 63" id="check-white" xmlns="http://www.w3.org/2000/svg"><path fill-rule="evenodd" clip-rule="evenodd" d="M24.75 52.815l9.896 9.896v-.001h.001l9.896-9.895L87.46 9.894 77.565 0 34.647 42.918 10.419 18.691.523 28.587l24.228 24.227h-.001z"/></svg><svg viewBox="0 0 20 20" id="facebook" xmlns="http://www.w3.org/2000/svg"><path d="M17.07 0H2.93A2.933 2.933 0 000 2.93v14.14A2.933 2.933 0 002.93 20h5.898v-7.07H6.484V9.414h2.344V7.031a3.52 3.52 0 013.516-3.515h3.554V7.03h-3.554v2.383h3.554l-.585 3.516h-2.97V20h4.727A2.933 2.933 0 0020 17.07V2.93A2.933 2.933 0 0017.07 0z"/></svg><svg viewBox="0 0 21 21" id="instagram" xmlns="http://www.w3.org/2000/svg"><path d="M12.51 10.5a2.01 2.01 0 11-4.02 0 2.01 2.01 0 014.02 0z"/><path d="M15.2 6.944a1.868 1.868 0 00-.451-.693 1.867 1.867 0 00-.694-.451c-.212-.083-.531-.18-1.119-.208-.636-.029-.826-.035-2.436-.035-1.61 0-1.801.006-2.437.035-.588.027-.907.125-1.12.208a1.86 1.86 0 00-.692.45 1.87 1.87 0 00-.452.694c-.082.213-.18.532-.207 1.12-.03.635-.035.826-.035 2.436 0 1.61.006 1.8.035 2.437.027.587.125.907.207 1.119.097.262.251.499.451.693.195.2.432.355.694.451.212.083.531.181 1.12.208.635.029.825.035 2.435.035s1.801-.006 2.437-.035c.588-.027.907-.125 1.12-.208a1.996 1.996 0 001.144-1.144c.082-.212.18-.532.207-1.12.03-.635.036-.826.036-2.436 0-1.61-.007-1.8-.036-2.436-.026-.588-.124-.907-.207-1.12zm-4.7 6.652a3.096 3.096 0 110-6.192 3.096 3.096 0 010 6.192zm3.218-5.59a.724.724 0 110-1.448.724.724 0 010 1.447z"/><path d="M10.5 0C4.702 0 0 4.702 0 10.5S4.702 21 10.5 21 21 16.298 21 10.5 16.298 0 10.5 0zm5.993 12.986c-.03.642-.131 1.08-.28 1.463a3.083 3.083 0 01-1.764 1.764c-.383.149-.821.25-1.463.28-.643.03-.848.036-2.486.036-1.637 0-1.843-.007-2.486-.036-.641-.03-1.08-.131-1.463-.28a2.954 2.954 0 01-1.068-.696 2.954 2.954 0 01-.696-1.068c-.149-.383-.25-.821-.28-1.463-.03-.643-.036-.849-.036-2.486 0-1.637.007-1.843.036-2.486.03-.642.131-1.08.28-1.463.152-.403.389-.767.696-1.068a2.953 2.953 0 011.068-.696c.383-.149.821-.25 1.463-.28.643-.03.849-.036 2.486-.036 1.637 0 1.843.007 2.486.036.642.03 1.08.131 1.463.28.403.152.767.389 1.068.696.307.301.544.665.696 1.068.149.383.25.821.28 1.463.03.643.036.849.036 2.486 0 1.637-.007 1.843-.036 2.486z"/></svg><svg viewBox="0 0 21 21" id="pinterest" xmlns="http://www.w3.org/2000/svg"><path d="M10.5 0C4.7 0 0 4.7 0 10.5c0 4.442 2.763 8.23 6.66 9.765-.016-.359-.014-2.217 1.28-7.764.172-1.85-.068-2.507-.068-3.275 0-1.745.906-2.113 1.436-2.113.754 0 1.797.289 1.797 1.505 0 1.393-1.136 1.76-1.136 1.76s-.082.356-.176 1.345c-.094.992.302 2.066 1.92 2.066 2.594 0 2.993-3.6 2.993-4.591 0-1.369-1.003-4.147-4.117-4.147-4.153 0-4.867 3.72-4.867 4.713 0 .425.117 1.174.197 1.494.784.127.703 1.2.368 1.505-.373.336-2.289.735-2.289-3.47 0-4.006 3.57-6.07 6.703-6.07 2.982 0 6.23 2.059 6.23 6.022 0 3.539-2.543 6.325-5.215 6.325-1.604 0-2.455-1.322-2.455-1.322 0 1.238-2.272 5.49-2.563 6.03 1.18.46 2.459.721 3.802.721C16.299 21 21 16.3 21 10.5S16.298 0 10.5 0z"/></svg><svg viewBox="0 0 138 138" id="play-button" xmlns="http://www.w3.org/2000/svg"><path d="M69 0C30.892 0 0 30.892 0 69c0 38.107 30.892 69 69 69 38.107 0 69-30.893 69-69-.041-38.09-30.909-68.96-69-69zm0 128.143c-32.664 0-59.143-26.479-59.143-59.143S36.337 9.857 69 9.857c32.664 0 59.143 26.48 59.143 59.143-.036 32.649-26.494 59.107-59.143 59.143z"/><path d="M98.058 66.801a4.93 4.93 0 00-2.213-2.212L56.417 44.874a4.929 4.929 0 00-7.132 4.411v39.43a4.929 4.929 0 007.132 4.41l39.428-19.714a4.928 4.928 0 002.213-6.61zM59.142 80.74V57.26L82.623 69l-23.48 11.74z"/></svg><svg viewBox="0 0 26 21" id="twitter" xmlns="http://www.w3.org/2000/svg"><path d="M25.386 2.442c-.944.414-1.95.688-2.998.822a5.176 5.176 0 002.29-2.877 10.401 10.401 0 01-3.301 1.26 5.203 5.203 0 00-9.003 3.559c0 .412.035.809.12 1.187C8.169 6.182 4.34 4.108 1.769.949a5.24 5.24 0 00-.713 2.63c0 1.803.928 3.4 2.312 4.326a5.14 5.14 0 01-2.352-.641v.057a5.229 5.229 0 004.17 5.114 5.196 5.196 0 01-1.364.17c-.334 0-.67-.018-.986-.088.675 2.061 2.588 3.576 4.863 3.626a10.458 10.458 0 01-6.452 2.22c-.427 0-.837-.02-1.246-.072a14.652 14.652 0 007.984 2.335c9.577 0 14.813-7.933 14.813-14.81 0-.23-.008-.452-.02-.672a10.384 10.384 0 002.61-2.702z"/></svg></svg>