<svg width="87" height="87" fill="none" xmlns="http://www.w3.org/2000/svg"><path d="M86.76 22.42a1.45 1.45 0 00-1.394-.648 9.051 9.051 0 01-1.09.068 14.874 14.874 0 01-7.283-2.13 61.368 61.368 0 01-7.291-4.682l-1.054-.757a38.174 38.174 0 00-5.316-3.419c-.907-.452-3.033-1.51-4.923-.467a4.95 4.95 0 00-1.958 2.414l-.067.139c-.396.803-.85 1.576-1.358 2.314a25.531 25.531 0 01-7.174 6.83v-2.764a10.149 10.149 0 10-8.698 0v2.763a25.529 25.529 0 01-7.175-6.83 18.408 18.408 0 01-1.357-2.314l-.068-.138a4.951 4.951 0 00-1.957-2.414c-1.89-1.041-4.016.015-4.925.467a38.212 38.212 0 00-5.32 3.422l-1.047.755a61.459 61.459 0 01-7.293 4.681 15.759 15.759 0 01-7.242 2.13 11.39 11.39 0 01-1.13-.068 1.45 1.45 0 00-1.424 2.184c.076.125 6.139 9.983 16.49 9.983a18.722 18.722 0 007.874-1.836c1.873.991 6.97 2.83 14.574-.721v12.881l-5.038-1.35.072-.041a4.36 4.36 0 00-4.566-7.428l-2.945 1.814a7.234 7.234 0 00.511 12.627 7.231 7.231 0 00.465 13.649 7.245 7.245 0 00.422 13.273l11.797 4.724 2.334 4.668a1.45 1.45 0 002.594-.002l2.317-4.646 11.821-4.743a7.244 7.244 0 00.43-13.274 7.232 7.232 0 00.464-13.648 7.235 7.235 0 00.509-12.63l-2.957-1.82a4.359 4.359 0 00-4.544 7.44l.062.038-5.05 1.353V31.382c7.602 3.552 12.698 1.71 14.573.72A18.722 18.722 0 0070.3 33.94c10.35-.001 16.415-9.858 16.49-9.983a1.45 1.45 0 00-.028-1.537zm-59.383 7.71a5.893 5.893 0 001.628-4.02 1.45 1.45 0 10-2.9 0 3.936 3.936 0 01-2.1 3.053C14.176 34.08 7.284 28.144 4.32 24.65a20.357 20.357 0 007.03-2.366 64.184 64.184 0 007.64-4.894l1.066-.77a36.155 36.155 0 014.908-3.172c.415-.205 1.68-.825 2.236-.524.334.32.59.71.748 1.144l.072.146c.458.93.982 1.824 1.57 2.677a29.303 29.303 0 009.565 8.599v2.646c-5.63 3-9.625 2.651-11.777 1.993zm-1.91 26.46a4.32 4.32 0 013.218-4.174l3.63-.972 5.599 1.5-8.472 2.269a1.45 1.45 0 00-.017 2.796l8.739 2.46-5.37 1.512-4.158-1.166a4.326 4.326 0 01-3.168-4.225zm18.051-2.145l8.22 2.202-8.224 2.316-8.214-2.316 8.218-2.202zm13.408-9.61a1.45 1.45 0 00.378-2.639l-2.95-1.792a1.46 1.46 0 011.523-2.49l2.942 1.81a4.357 4.357 0 01-1.136 7.921l-2.964.796-5.613-1.51 7.82-2.096zm-2.687 6.48l.02.005 4.07 1.095a4.323 4.323 0 013.224 4.175 4.326 4.326 0 01-3.161 4.223l-28.026 7.872a1.45 1.45 0 00-.144 2.742l12.753 5.102c.017.006.035.003.052.01.157.06.323.091.49.094l.017-.003a1.32 1.32 0 00.164-.032 1.35 1.35 0 00.36-.07l12.74-5.1a1.45 1.45 0 00-.146-2.743l-7.78-2.186 5.365-1.507 3.199.904a4.345 4.345 0 01.43 8.219l-12.219 4.901c-.025.008-.045.026-.07.035a1.435 1.435 0 00-.31.152c-.035.024-.064.054-.097.08a1.428 1.428 0 00-.222.217c-.026.032-.046.066-.07.1a1.41 1.41 0 00-.107.157l-1.27 2.548-1.282-2.564a1.36 1.36 0 00-.132-.169.936.936 0 00-.441-.407 1.375 1.375 0 00-.185-.122l-12.315-4.931a4.346 4.346 0 01.44-8.218l14.384-4.05.009-.002 13.618-3.833a1.45 1.45 0 00-.018-2.796l-28.236-7.566a4.357 4.357 0 01-1.143-7.922l2.929-1.803a1.46 1.46 0 111.545 2.476l-2.958 1.798a1.45 1.45 0 00.377 2.639L43.13 48.33c.03.008.06.014.09.02l11.018 2.965zm-10.73 16.69l8.246 2.317-8.238 3.3-8.25-3.303 8.242-2.314zM42.053 45.04V20.194a9.16 9.16 0 002.9 0v24.849l-1.442.386-1.458-.39zm1.45-27.629a7.258 7.258 0 01-7.25-7.249 7.249 7.249 0 117.25 7.25zm19.5 11.753A3.945 3.945 0 0160.9 26.11a1.45 1.45 0 10-2.9 0 5.893 5.893 0 001.629 4.02c-2.156.66-6.149 1.005-11.777-1.994V25.49a29.306 29.306 0 009.564-8.597 21.435 21.435 0 001.571-2.679l.072-.146c.158-.433.414-.824.747-1.143.563-.3 1.822.317 2.235.523a35.915 35.915 0 014.906 3.17l1.07.772a64.105 64.105 0 007.64 4.894 20.361 20.361 0 007.039 2.367c-2.95 3.498-9.823 9.446-19.693 4.513z" fill="#EAAB00"/></svg>