<svg width="87" height="88" fill="none" xmlns="http://www.w3.org/2000/svg"><path d="M78.3 0H8.7c-.8 0-1.45.657-1.45 1.467v85.066c0 .81.65 1.467 1.45 1.467h69.6c.8 0 1.45-.657 1.45-1.467V1.467C79.75.657 79.1 0 78.3 0zM34.8 2.933h17.4V8.8H34.8V2.933zm-1.45 8.8h20.3c.8 0 1.45-.656 1.45-1.466V7.333h17.4v73.334h-58V7.333h17.4v2.934c0 .81.65 1.466 1.45 1.466zm43.5 73.334h-66.7V2.933H31.9V4.4H13.05c-.8 0-1.45.657-1.45 1.467v76.266c0 .81.65 1.467 1.45 1.467h60.9c.8 0 1.45-.657 1.45-1.467V5.867c0-.81-.65-1.467-1.45-1.467H55.1V2.933h21.75v82.134z" fill="#EAAB00"/><path d="M43.5 33.733H24.65v2.934H43.5v-2.934zm18.85 0H46.4v2.934h15.95v-2.934zm0 11.734h-37.7V48.4h37.7v-2.933zm0 11.733h-26.1v2.933h26.1V57.2zm-29 0h-8.7v2.933h8.7V57.2zM43.5 68.933H24.65v2.934H43.5v-2.934zm18.85 0H46.4v2.934h15.95v-2.934zM69.6 13.2h-2.9v-2.933c0-.81-.649-1.467-1.45-1.467h-5.8c-.8 0-1.45.657-1.45 1.467V13.2h-2.9c-.8 0-1.45.657-1.45 1.467v5.866c0 .81.65 1.467 1.45 1.467H58v2.933c0 .81.65 1.467 1.45 1.467h5.8c.801 0 1.45-.657 1.45-1.467V22h2.9c.801 0 1.45-.657 1.45-1.467v-5.866c0-.81-.649-1.467-1.45-1.467zm-1.45 5.867h-2.9c-.8 0-1.45.656-1.45 1.466v2.934h-2.9v-2.934c0-.81-.649-1.466-1.45-1.466h-2.9v-2.934h2.9c.801 0 1.45-.656 1.45-1.466v-2.934h2.9v2.934c0 .81.65 1.466 1.45 1.466h2.9v2.934z" fill="#EAAB00"/></svg>