<svg width="75" height="74" fill="none" xmlns="http://www.w3.org/2000/svg"><g clip-path="url(#clip0)" fill="#EAAB00"><path d="M58.474 5.015c-6.63-6.628-17.452-6.698-24.17-.139l-.14.139-14.206 14.017c-.281.156-.509.38-.667.657L4.997 33.776a16.72 16.72 0 00.017 23.847c6.718 6.559 17.522 6.559 24.257 0l.017-.018 14.277-14.138a1.764 1.764 0 00.51-.502l14.258-14.104c6.718-6.541 6.77-17.219.14-23.846zm-31.676 50.15c-5.35 5.21-13.961 5.227-19.31 0a13.316 13.316 0 010-18.949l13.4-13.221L40.11 41.996l-13.312 13.17zM55.86 26.387L42.583 39.52 23.36 20.555 36.655 7.437c5.297-5.226 13.909-5.226 19.205 0a13.285 13.285 0 010 18.95z"/><path d="M42.245 12.767a1.732 1.732 0 00-2.473-.017l-6.069 5.884a1.708 1.708 0 00-.035 2.44 1.78 1.78 0 002.473.034l.018-.017 6.051-5.884a1.708 1.708 0 00.035-2.44zm27.782 32.586l-.017-.017c-6.543-6.559-17.242-6.628-23.889-.156l-.158.156a16.642 16.642 0 00-.017 23.743c6.63 6.559 17.416 6.559 24.064.017a16.642 16.642 0 00.017-23.743zM44.49 57.208c0-7.355 6.051-13.326 13.505-13.326 2.964 0 5.858.97 8.209 2.752l-18.925 18.69a13.28 13.28 0 01-2.789-8.116zm23.047 9.414c-4.789 4.724-12.4 5.209-17.768 1.142L68.694 49.09a13.16 13.16 0 01-1.157 17.53z"/></g><defs><clipPath id="clip0"><path fill="#fff" d="M0 0h75v74H0z"/></clipPath></defs></svg>