<svg width="87" height="87" viewBox="0 0 87 87" fill="none" xmlns="http://www.w3.org/2000/svg">
<path d="M86.7608 22.4191C86.4581 21.9543 85.9166 21.703 85.3662 21.7718C85.0045 21.8163 84.6404 21.8391 84.2759 21.8397C81.7051 21.7716 79.1958 21.0378 76.9931 19.7105C74.4554 18.3236 72.0189 16.7591 69.7017 15.0285L68.6484 14.2711C66.9739 12.9864 65.1956 11.8428 63.332 10.852C62.4253 10.4004 60.2988 9.3413 58.4087 10.3848C57.514 10.9585 56.8278 11.8048 56.4513 12.7986L56.384 12.9375C55.9877 13.7409 55.5337 14.5144 55.0256 15.2523C53.1031 17.9752 50.6659 20.2954 47.8518 22.0817V19.3177C52.1398 17.2837 54.4454 12.5494 53.4031 7.91945C52.3608 3.28932 48.2487 0 43.5028 0C38.7568 0 34.6447 3.28932 33.6022 7.91928C32.5598 12.5492 34.8654 17.2835 39.1535 19.3175V22.0815C36.3389 20.2949 33.9016 17.9741 31.9791 15.2507C31.4711 14.5136 31.0176 13.7404 30.6221 12.9373L30.5542 12.7985C30.1777 11.8046 29.4915 10.9584 28.5968 10.3846C26.7061 9.34402 24.581 10.4003 23.6719 10.8518C21.8073 11.8435 20.0282 12.9881 18.3527 14.2738L17.305 15.0285C14.9871 16.7589 12.5498 18.3234 10.0116 19.7105C7.80582 20.9964 5.32061 21.7271 2.76982 21.8397C2.38399 21.8299 2.01311 21.8185 1.63934 21.7718C1.08888 21.703 0.547427 21.9543 0.244676 22.4191C-0.0580762 22.8839 -0.0689494 23.4808 0.216473 23.9565C0.291566 24.081 6.35459 33.9391 16.7061 33.9391C19.4331 33.9079 22.1204 33.2811 24.58 32.1029C26.4531 33.0941 31.5509 34.9327 39.1535 31.3819V44.2631L34.1162 42.9139L34.1877 42.8715C36.2305 41.6073 36.8654 38.9287 35.6075 36.8822C34.3496 34.8356 31.6729 34.1926 29.6225 35.4444L26.6775 37.2578C24.4395 38.6267 23.1179 41.1 23.2239 43.7215C23.3299 46.3429 24.8469 48.7014 27.1884 49.8851C24.3196 50.9957 22.4675 53.7999 22.5722 56.8745C22.677 59.9491 24.7156 62.6208 27.6534 63.5337C25.0518 64.7697 23.4295 67.4292 23.5209 70.3081C23.6123 73.1869 25.4002 75.7381 28.0749 76.8065L39.8722 81.5313L42.2059 86.1988C42.4515 86.6899 42.9536 87.0002 43.5027 87H43.5033C44.0528 86.9995 44.5548 86.6888 44.8001 86.1973L47.1168 81.5508L58.9382 76.8079C61.6149 75.742 63.4056 73.1913 63.4987 70.3118C63.5918 67.4323 61.9698 64.7712 59.3677 63.5344C62.3052 62.6212 64.3434 59.9494 64.4481 56.8748C64.5526 53.8004 62.7007 50.9963 59.8321 49.8857C62.1735 48.7014 63.6904 46.3422 63.7959 43.7204C63.9014 41.0986 62.5792 38.6251 60.3407 37.2563L57.3839 35.4355C55.3299 34.1866 52.6523 34.8365 51.3993 36.8881C50.1464 38.9398 50.7908 41.6183 52.8399 42.8756L52.9022 42.9138L47.852 44.267V31.3822C55.4537 34.9337 60.5499 33.0929 62.4253 32.1029C64.8849 33.2811 67.5721 33.9079 70.2992 33.9391C80.6487 33.9376 86.7139 24.081 86.7888 23.9565C87.0744 23.4808 87.0636 22.8839 86.7608 22.4191ZM27.377 30.1291C28.4108 29.045 28.993 27.6078 29.0051 26.1097C29.0051 25.309 28.3561 24.66 27.5554 24.66C26.7546 24.66 26.1057 25.3092 26.1057 26.1097C25.9585 27.4138 25.1711 28.5589 24.0059 29.1629C14.1741 34.0811 7.2834 28.144 4.31891 24.65C6.78731 24.2986 9.17024 23.4967 11.349 22.2842C14.0078 20.835 16.5606 19.1994 18.9886 17.3897L20.0547 16.6209C21.6026 15.4327 23.2441 14.3715 24.9633 13.4482C25.3782 13.2429 26.6423 12.6228 27.1994 12.9244C27.5329 13.2434 27.7886 13.6349 27.947 14.0683L28.0192 14.214C28.4765 15.1434 29.0012 16.0382 29.5885 16.8912C32.1007 20.4305 35.3678 23.3674 39.1535 25.4899V28.136C33.5231 31.1359 29.529 30.7874 27.377 30.1291ZM25.4677 56.5903C25.4691 54.6304 26.7895 52.917 28.6845 52.4165L32.3141 51.4442L37.9138 52.9442L29.4425 55.2128C28.8117 55.3815 28.3714 55.9511 28.3673 56.604C28.3632 57.2571 28.7961 57.8322 29.4249 58.0089L38.1639 60.4688L32.7934 61.9807L28.6355 60.815C26.7428 60.2894 25.4419 58.5544 25.4677 56.5903ZM43.5181 54.4452L51.7383 56.6469L43.5137 58.9625L35.2997 56.6469L43.5181 54.4452ZM56.9265 44.8349C57.4868 44.6844 57.9034 44.2141 57.9855 43.6399C58.0675 43.0655 57.7994 42.4975 57.3037 42.196L54.3547 40.4036C53.9099 40.1316 53.6438 39.643 53.6569 39.1217C53.67 38.6005 53.9602 38.1258 54.4182 37.8766C54.8762 37.6273 55.4323 37.6413 55.8773 37.9133L58.8186 39.724C60.302 40.6326 61.1027 42.3365 60.8558 44.0584C60.6088 45.7802 59.3614 47.1902 57.6826 47.6453L54.7186 48.441L49.1063 46.9309L56.9265 44.8349ZM54.2388 51.3145L54.259 51.32L58.3295 52.4151C60.2269 52.9143 61.5502 54.6285 61.5526 56.5903C61.5784 58.5519 60.2811 60.2853 58.3917 60.8135L30.3663 68.6852C29.7684 68.8538 29.3442 69.3843 29.3116 70.0046C29.2789 70.6249 29.6451 71.1971 30.2219 71.4275L42.9753 76.5286C42.9923 76.5354 43.01 76.532 43.0271 76.5381C43.1838 76.5982 43.3498 76.6305 43.5176 76.6334L43.5338 76.6303C43.5891 76.6229 43.644 76.6123 43.698 76.5984C43.8204 76.5907 43.9413 76.5673 44.0575 76.5287L56.7989 71.4277C57.3756 71.1968 57.741 70.6242 57.7079 70.0039C57.6747 69.3837 57.2503 68.8534 56.6523 68.6852L48.8712 66.499L54.2366 64.9924L57.4359 65.8961C59.2283 66.4008 60.4996 67.9917 60.5969 69.8514C60.6941 71.7109 59.5956 73.4258 57.8657 74.1147L45.6474 79.0162C45.6218 79.024 45.6017 79.0416 45.5767 79.0508C45.4678 79.0889 45.364 79.1398 45.2674 79.2027C45.2318 79.2267 45.2028 79.2566 45.1697 79.2834C45.0881 79.3473 45.0137 79.4197 44.9478 79.4997C44.9221 79.5318 44.9016 79.5659 44.8786 79.6003C44.8394 79.6499 44.8034 79.702 44.7711 79.7566L43.5005 82.305L42.2191 79.7409C42.1797 79.6813 42.1355 79.6249 42.0871 79.5721C41.9887 79.3915 41.8338 79.2482 41.6459 79.1645C41.5876 79.1191 41.5258 79.0785 41.4609 79.043L29.1457 74.1118C27.4181 73.4195 26.3229 71.7037 26.4227 69.8453C26.5224 67.9866 27.7947 66.3979 29.5866 65.8945L43.9702 61.8449L43.979 61.8424L57.5969 58.0089C58.225 57.8315 58.6572 57.2566 58.6532 56.604C58.6491 55.9515 58.2096 55.382 57.5793 55.2128L29.3435 47.6467C27.6631 47.1941 26.4133 45.7848 26.1646 44.0624C25.9159 42.34 26.7159 40.6348 28.1996 39.7254L31.1289 37.9216C31.5713 37.6428 32.1291 37.6221 32.591 37.8672C33.053 38.1124 33.3484 38.5861 33.3654 39.1087C33.3824 39.6313 33.1185 40.1231 32.6736 40.3978L29.7161 42.1958C29.2205 42.4974 28.9524 43.0652 29.0343 43.6394C29.1162 44.2136 29.5324 44.6839 30.0926 44.8348L43.1313 48.3303C43.1603 48.3375 43.1901 48.3445 43.2211 48.3502L54.2388 51.3145ZM43.5091 68.0048L51.7555 70.322L43.5171 73.622L35.2665 70.3191L43.5091 68.0048ZM42.053 45.0395V20.1948C43.0134 20.3493 43.9921 20.3493 44.9525 20.1948V45.0436L43.511 45.4297L42.053 45.0395ZM43.5028 17.4113C39.5013 17.4065 36.2587 14.1639 36.2539 10.1624C36.2539 6.15901 39.4993 2.91352 43.5028 2.91352C47.5064 2.91352 50.7517 6.15901 50.7517 10.1624C50.7517 14.1658 47.5062 17.4113 43.5028 17.4113ZM63.0026 29.1642C61.837 28.5596 61.0487 27.4145 60.8998 26.1097C60.8998 25.309 60.2508 24.66 59.4501 24.66C58.6494 24.66 58.0004 25.3092 58.0004 26.1097C58.0125 27.6078 58.5949 29.0453 59.6289 30.1294C57.4732 30.7896 53.48 31.1348 47.852 28.1364V25.4903C51.6374 23.3679 54.9041 20.4315 57.4163 16.8929C58.004 16.0392 58.529 15.1439 58.9872 14.2142L59.0587 14.0684C59.217 13.6349 59.4727 13.2436 59.8062 12.9245C60.3691 12.6245 61.6283 13.2417 62.041 13.4483C63.7598 14.37 65.4008 15.4301 66.9474 16.6182L68.0177 17.3899C70.4452 19.1998 72.9978 20.8353 75.6565 22.2844C77.838 23.4983 80.2241 24.3007 82.6958 24.6515C79.7459 28.1495 72.8725 34.0969 63.0026 29.1642Z" fill="#EAAB00"/>
</svg>
