<svg width="87" height="88" viewBox="0 0 87 88" fill="none" xmlns="http://www.w3.org/2000/svg">
<path d="M78.3 0H8.7C7.89924 0 7.25 0.6567 7.25 1.46667V86.5333C7.25 87.3433 7.89924 88 8.7 88H78.3C79.1008 88 79.75 87.3433 79.75 86.5333V1.46667C79.75 0.6567 79.1008 0 78.3 0ZM34.8 2.93333H52.2V8.8H34.8V2.93333ZM33.35 11.7333H53.65C54.4508 11.7333 55.1 11.0766 55.1 10.2667V7.33333H72.5V80.6667H14.5V7.33333H31.9V10.2667C31.9 11.0766 32.5492 11.7333 33.35 11.7333ZM76.85 85.0667H10.15V2.93333H31.9V4.4H13.05C12.2492 4.4 11.6 5.0567 11.6 5.86667V82.1333C11.6 82.9433 12.2492 83.6 13.05 83.6H73.95C74.7508 83.6 75.4 82.9433 75.4 82.1333V5.86667C75.4 5.0567 74.7508 4.4 73.95 4.4H55.1V2.93333H76.85V85.0667Z" fill="#EAAB00"/>
<path d="M43.5004 33.7333H24.6504V36.6667H43.5004V33.7333Z" fill="#EAAB00"/>
<path d="M62.3504 33.7333H46.4004V36.6667H62.3504V33.7333Z" fill="#EAAB00"/>
<path d="M62.3504 45.4666H24.6504V48.4H62.3504V45.4666Z" fill="#EAAB00"/>
<path d="M62.35 57.2H36.25V60.1333H62.35V57.2Z" fill="#EAAB00"/>
<path d="M33.3504 57.2H24.6504V60.1333H33.3504V57.2Z" fill="#EAAB00"/>
<path d="M43.5004 68.9333H24.6504V71.8667H43.5004V68.9333Z" fill="#EAAB00"/>
<path d="M62.3504 68.9333H46.4004V71.8667H62.3504V68.9333Z" fill="#EAAB00"/>
<path d="M69.6004 13.2H66.7004V10.2667C66.7004 9.45672 66.0512 8.80002 65.2504 8.80002H59.4504C58.6496 8.80002 58.0004 9.45672 58.0004 10.2667V13.2H55.1004C54.2996 13.2 53.6504 13.8567 53.6504 14.6667V20.5334C53.6504 21.3433 54.2996 22 55.1004 22H58.0004V24.9334C58.0004 25.7433 58.6496 26.4 59.4504 26.4H65.2504C66.0512 26.4 66.7004 25.7433 66.7004 24.9334V22H69.6004C70.4012 22 71.0504 21.3433 71.0504 20.5334V14.6667C71.0504 13.8567 70.4012 13.2 69.6004 13.2ZM68.1504 19.0667H65.2504C64.4496 19.0667 63.8004 19.7234 63.8004 20.5334V23.4667H60.9004V20.5334C60.9004 19.7234 60.2512 19.0667 59.4504 19.0667H56.5504V16.1334H59.4504C60.2512 16.1334 60.9004 15.4767 60.9004 14.6667V11.7334H63.8004V14.6667C63.8004 15.4767 64.4496 16.1334 65.2504 16.1334H68.1504V19.0667Z" fill="#EAAB00"/>
</svg>
