<svg width="75" height="74" viewBox="0 0 75 74" fill="none" xmlns="http://www.w3.org/2000/svg">
<g clip-path="url(#clip0)">
<path d="M58.4737 5.01456C51.8439 -1.61338 41.0222 -1.68261 34.3047 4.87611C34.2521 4.92803 34.217 4.96264 34.1644 5.01456L19.9577 19.0319C19.677 19.1876 19.449 19.4126 19.2912 19.6895L4.99674 33.776C-1.66815 40.3693 -1.65061 51.0467 5.01428 57.6227C11.7318 64.1815 22.5359 64.1815 29.271 57.6227L29.2885 57.6054L43.5654 43.467C43.6707 43.3978 43.7583 43.3285 43.846 43.242C43.9337 43.1555 44.0039 43.069 44.0741 42.9651L58.3334 28.8613C65.0509 22.3199 65.1035 11.6425 58.4737 5.01456ZM26.798 55.1654C21.4485 60.3743 12.8368 60.3916 7.48731 55.1654C2.20801 49.9219 2.20801 41.4596 7.48731 36.2161L20.8872 22.9948L40.1102 41.996L26.798 55.1654ZM55.8604 26.3866L42.5832 39.5214L23.3603 20.5547L36.655 7.4373C41.9518 2.21109 50.5636 2.21109 55.8604 7.4373C61.1572 12.6635 61.1572 21.1604 55.8604 26.3866Z" fill="#EAAB00"/>
<path d="M42.2451 12.7673C41.5786 12.0751 40.4736 12.0578 39.7721 12.75L33.7035 18.6338C33.0019 19.3087 33.0019 20.399 33.6684 21.0739C34.3349 21.7488 35.4574 21.7661 36.1414 21.1085L36.159 21.0912L42.21 15.2074C42.9116 14.5324 42.9116 13.4422 42.2451 12.7673Z" fill="#EAAB00"/>
<path d="M70.0271 45.3534C70.0271 45.3534 70.0271 45.3534 70.0095 45.336C63.4674 38.7773 52.7685 38.7081 46.1212 45.1803C46.0685 45.2322 46.0159 45.2841 45.9633 45.336C39.3159 51.8948 39.3159 62.5202 45.9458 69.079C52.5756 75.6377 63.3622 75.6377 70.0095 69.0963C76.6569 62.5375 76.6569 51.9121 70.0271 45.3534ZM44.49 57.2075C44.49 49.8527 50.541 43.8824 57.9952 43.8824C60.9593 43.8824 63.8533 44.8515 66.2035 46.6339L47.2787 65.3237C45.4722 62.9875 44.49 60.1321 44.49 57.2075ZM67.5365 66.6216C62.7483 71.3459 55.1363 71.8305 49.7693 67.7637L68.6941 49.0913C72.8333 54.3867 72.3422 61.8972 67.5365 66.6216Z" fill="#EAAB00"/>
</g>
<defs>
<clipPath id="clip0">
<rect width="75" height="74" fill="white"/>
</clipPath>
</defs>
</svg>
