<svg width="50" height="16" viewBox="0 0 50 16" fill="none" xmlns="http://www.w3.org/2000/svg">
<path d="M20.4375 0.176514L17.9281 15.7922H21.9391L24.4469 0.176514C24.4469 0.176514 20.4375 0.176514 20.4375 0.176514ZM32.536 6.53747C31.1344 5.84531 30.2751 5.37815 30.2751 4.67021C30.2922 4.02654 31.0017 3.3671 32.586 3.3671C33.8892 3.33437 34.847 3.64061 35.5736 3.94531L35.9376 4.10777L36.4829 0.840577C35.6906 0.534337 34.4345 0.196906 32.8829 0.196906C28.922 0.196906 26.1329 2.25627 26.1156 5.20163C26.0828 7.37513 28.1124 8.58125 29.6313 9.30478C31.1829 10.047 31.711 10.5282 31.711 11.1876C31.6939 12.2001 30.4564 12.6673 29.3017 12.6673C27.7018 12.6673 26.8424 12.4266 25.5377 11.8625L25.0095 11.6219L24.4486 15.0173C25.3908 15.4361 27.1236 15.8047 28.9221 15.8236C33.1315 15.8236 35.8706 13.7954 35.905 10.6564C35.9187 8.93444 34.8485 7.61557 32.536 6.53747ZM46.7657 0.22484H43.6625C42.7062 0.22484 41.9796 0.499891 41.5656 1.48116L35.6077 15.7922H39.8171L40.9764 12.6938H45.6859L46.2874 15.8047H50L46.7657 0.22484ZM42.1438 9.56697C42.225 9.57486 43.7595 4.50912 43.7595 4.50912L44.9813 9.56697C44.9813 9.56697 42.936 9.56697 42.1438 9.56697ZM14.5766 0.176514L10.6469 10.7859L10.2188 8.69367C9.49221 6.27956 7.21417 3.65621 4.67188 2.3531L8.27033 15.7766H12.5142L18.8205 0.178226H14.5766V0.176514Z" fill="#2394BC"/>
<path d="M8.89692 2.19032C8.59068 0.999627 7.61403 0.19658 6.28762 0.179443H0.0640929L0 0.468375C4.85478 1.66523 8.92965 5.348 10.2516 8.8121L8.89692 2.19032Z" fill="#EFC75E"/>
</svg>
