<svg width="61" height="39" viewBox="0 0 61 39" fill="none" xmlns="http://www.w3.org/2000/svg">
<path d="M31.428 26.5573C31.428 21.8595 29.1935 18.387 24.577 17.0855C27.9453 15.4814 29.7019 13.0512 29.7019 9.27105C29.7019 1.8176 24.1296 0 17.7007 0H0V37.4223H18.1964C25.0194 37.4223 31.428 34.1608 31.428 26.5573ZM8.25167 6.3883H15.9949C18.9717 6.3883 21.6511 7.22211 21.6511 10.6641C21.6511 13.8417 19.5666 15.1204 16.6177 15.1204H8.25167V6.3883ZM8.24912 31.067V20.7614H17.2431C20.8757 20.7614 23.1738 22.2714 23.1738 26.1049C23.1738 29.885 20.4309 31.067 17.0728 31.067H8.24912Z" fill="#EAAB00"/>
<path d="M47.7815 38.1316C54.274 38.1316 58.4786 35.2158 60.5022 29.0182H53.913C53.2038 31.3315 50.2804 32.5543 48.0128 32.5543C43.6378 32.5543 41.3398 29.9994 41.3398 25.6575H60.947C61.5673 16.9686 56.7271 9.56348 47.7789 9.56348C39.4942 9.56348 33.8711 15.7713 33.8711 23.9035C33.8711 32.3433 39.1993 38.1316 47.7815 38.1316ZM47.5476 15.1866C51.2972 15.1866 53.1834 17.383 53.4987 20.975H41.35C41.5965 17.4135 43.9683 15.1866 47.5476 15.1866Z" fill="#EAAB00"/>
<path d="M39.8271 1.96509H55.0493V5.65114H39.8271V1.96509Z" fill="#EAAB00"/>
</svg>
