<svg width="129" height="53" viewBox="0 0 129 53" fill="none" xmlns="http://www.w3.org/2000/svg">
<path d="M111.487 23.0481C109.306 23.5478 103.547 23.8254 103.547 23.8254L102.839 26.0832C102.839 26.0832 105.691 25.8426 107.778 26.0462C107.778 26.0462 108.449 25.9907 108.523 26.7865C108.561 27.6008 108.468 28.4521 108.468 28.4521C108.468 28.4521 108.412 28.9518 107.722 29.0813C106.921 29.2109 101.516 29.4514 101.516 29.4514L100.64 32.3755C100.64 32.3755 100.323 33.0417 101.05 32.8567C101.721 32.6716 107.387 31.5982 108.132 31.7463C108.915 31.9313 109.809 33.0047 109.549 33.9671C109.25 35.133 103.585 38.7233 100.155 38.4827C100.155 38.4827 98.3475 38.5937 96.8379 36.1694C95.3842 33.856 97.3411 29.507 97.3411 29.507C97.3411 29.507 96.4652 27.4712 97.1175 26.731C97.1175 26.731 97.4902 26.4163 98.6085 26.3238L100.006 23.4738C100.006 23.4738 98.4221 23.5663 97.4902 22.4189C96.6329 21.3085 96.5584 20.8273 97.2293 20.5312C97.9375 20.1611 104.498 18.9952 109.008 19.1432C109.008 19.1432 110.592 18.9581 111.99 21.6786C111.99 21.6786 112.624 22.789 111.505 23.0481H111.487ZM94.4896 34.0041C93.9305 35.3551 92.3836 36.7801 90.5199 35.9103C88.6189 35.022 85.6183 28.9518 85.6183 28.9518C85.6183 28.9518 84.5 26.6939 84.2764 26.768C84.2764 26.768 84.0341 26.3238 83.9036 28.8037C83.7173 31.2651 83.9409 36.0583 82.9159 36.8171C81.984 37.5574 80.8658 37.2428 80.2321 36.3729C79.7102 35.5031 79.4866 33.4119 79.7848 29.7661C80.1203 26.1202 80.9589 22.2338 82.0213 21.0309C83.1395 19.8095 84.0341 20.6978 84.3696 21.0309C84.3696 21.0309 85.8046 22.3264 88.2275 26.1572L88.6375 26.8605C88.6375 26.8605 90.8367 30.5063 91.0604 30.4878C91.0604 30.4878 91.2467 30.6729 91.3958 30.5248C91.6195 30.4693 91.5449 29.2849 91.5449 29.2849C91.5449 29.2849 91.1349 25.343 89.0848 18.6805C89.0848 18.6805 88.7866 17.8292 88.9916 17.0149C89.178 16.2747 89.9794 16.6448 89.9794 16.6448C89.9794 16.6448 93.0732 18.1253 94.5828 23.1222C96.0738 28.119 95.0674 32.6531 94.5083 34.0041H94.4896ZM79.3189 21.179C79.0207 21.6971 78.8902 22.4189 77.6042 22.6225C77.6042 22.6225 65.1172 23.4923 64.5022 24.3621C64.5022 24.3621 64.0922 24.8803 64.7631 25.0098C65.4713 25.1579 68.3042 25.528 69.6461 25.602C71.0998 25.602 75.9828 25.6391 77.772 27.8229C77.772 27.8229 78.797 28.8592 78.7597 31.2096C78.7225 33.6154 78.2938 34.4668 77.3433 35.3366C76.3555 36.1509 67.8942 39.9262 62.4335 34.1521C62.4335 34.1521 59.9361 31.3761 63.3094 29.2664C63.3094 29.2664 65.7323 27.7858 71.9385 29.507C71.9385 29.507 73.8022 30.1732 73.7277 30.858C73.6158 31.5982 72.1808 32.3385 70.0934 32.3015C68.0806 32.246 66.5896 31.2836 66.8878 31.4502C67.1673 31.5427 64.7072 30.2657 63.9431 31.1356C63.1976 31.9498 63.384 32.431 64.1295 32.9307C65.9932 34.0041 73.3176 33.6154 75.4982 31.1911C75.4982 31.1911 76.3742 30.2102 75.0509 29.4144C73.7463 28.6742 69.9443 28.2115 68.4719 28.156C67.0742 28.0819 61.8371 28.156 61.0543 26.805C61.0543 26.805 60.3088 25.8426 61.1289 23.2147C61.9862 20.4387 68.0806 19.3653 70.7271 19.1432C70.7271 19.1432 77.9956 18.8471 79.3561 20.3276C79.3561 20.3276 79.5425 20.6608 79.3189 21.1604V21.179ZM58.706 37.4463C57.8301 38.0941 55.9663 37.8165 55.4258 37.0762C54.904 36.4285 54.7176 33.8745 54.8108 29.8586C54.9413 25.7501 54.9972 20.7163 55.9291 19.902C56.8609 19.1062 57.42 19.8095 57.7928 20.3461C58.1655 20.9014 58.6501 21.5121 58.7246 22.789C58.8365 24.0845 59.1533 30.7469 59.1533 30.7469C59.1533 30.7469 59.5633 36.8171 58.7246 37.4463H58.706ZM60.5697 15.7935C57.9978 16.6633 56.2459 16.3857 54.7549 15.738C54.1026 16.9039 53.7112 17.2555 53.2266 17.3296C52.4811 17.4036 51.8288 16.2192 51.7357 15.849C51.5866 15.5714 51.2325 15.0717 51.6611 13.9428C50.2074 12.6474 50.0956 10.9077 50.3565 9.74182C50.692 8.37232 53.1521 3.22746 60.607 2.61674C60.607 2.61674 64.2599 2.35765 64.8936 4.28234H65.0054C65.0054 4.28234 68.5465 4.28234 68.4719 7.42848C68.4719 10.5746 64.5581 14.498 60.5697 15.849V15.7935ZM63.8872 6.83627C61.5389 7.2064 57.9232 10.3155 56.19 12.888C58.8551 13.3691 63.5144 13.1841 65.6018 9.00155C65.6018 9.00155 66.5896 6.3736 63.8872 6.83627ZM53.5807 8.872C52.8353 10.0749 52.798 10.7967 53.1521 11.2779C54.028 9.9824 55.5749 7.94667 57.9046 6.35509C56.1154 6.54016 54.6058 7.28043 53.5807 8.872ZM117.078 37.3168C115.363 41.4993 113.91 45.7373 113.071 52.0851C113.071 52.0851 112.885 53.3251 111.86 52.9179C110.835 52.5478 109.157 50.8822 108.784 48.5318C108.412 45.4597 109.791 40.2779 112.605 34.3187C111.785 33.0232 111.207 31.0985 111.673 28.3966C111.673 28.3966 112.419 23.3998 117.451 18.8841C117.451 18.8841 118.047 18.3844 118.383 18.551C118.793 18.7361 118.625 20.3276 118.289 21.1419C117.991 21.9192 115.755 25.7686 115.755 25.7686C115.755 25.7686 114.357 28.3966 114.748 30.4508C117.395 26.4163 123.415 18.2364 127.142 20.8273C129.509 22.4929 129.509 27.8599 127.739 30.969C126.341 33.4304 122.39 38.5197 117.115 37.3353L117.078 37.3168ZM124.868 24.7507C123.489 26.2313 121.029 29.0443 119.091 32.8567C121.141 32.6346 123.135 31.5057 123.75 30.932C124.738 30.0622 127.012 27.7118 126.658 24.6027C126.658 24.6027 126.434 22.9741 124.868 24.7507ZM41.3733 39.5006C34.7757 41.4993 28.5509 40.574 25.1589 39.6856C25.0657 41.0551 24.9166 41.6288 24.6929 41.8509C24.432 42.147 22.2701 43.3685 21.0773 41.6288C20.5555 40.796 20.2945 39.297 20.1454 37.9275C12.5041 34.4853 8.96306 29.4144 8.85124 29.2294C8.66486 29.0443 6.9316 27.2491 8.66486 25.0283C10.2863 23.0296 15.6539 21.0124 20.4623 20.2166C20.6486 16.1451 21.0959 12.999 21.6737 11.611C22.3633 9.94539 23.2392 11.4259 24.022 12.5363C24.6557 13.3691 25.047 16.9409 25.0843 19.7909C28.2154 19.6429 30.1164 19.865 33.6016 20.5312C38.1863 21.3085 41.2429 23.6403 41.0006 26.2683C40.7769 28.8592 38.3914 29.9326 37.4595 30.0066C36.5276 30.0807 35.0366 29.3959 35.0366 29.3959C33.993 28.9147 34.9435 28.4706 36.1549 27.9524C37.4968 27.3047 37.1986 26.6569 37.1986 26.6569C36.714 25.1764 30.7687 24.1955 24.8607 24.1955C24.8607 27.4342 24.9911 32.8012 25.0843 35.9288C29.2218 36.7061 32.3156 36.5395 32.3156 36.5395C32.3156 36.5395 47.4118 36.1138 47.8405 26.5459C48.3064 16.9594 32.7443 7.78011 21.2823 4.89307C9.83901 1.91349 3.35323 4.02325 2.79412 4.30085C2.17909 4.59696 2.7382 4.708 2.7382 4.708C2.7382 4.708 3.35323 4.80053 4.47147 5.17067C5.58971 5.5408 4.69512 6.096 4.69512 6.096C2.7382 6.76224 0.55764 6.3736 0.128982 5.48528C-0.299676 4.61547 0.408542 3.81968 1.24722 2.65376C2.02999 1.45082 2.92458 1.48783 2.92458 1.48783C17.0889 -3.41644 34.3843 5.37424 34.3843 5.37424C50.5615 13.4802 53.3198 23.0111 53.0216 26.7125C52.7607 30.3583 51.3443 36.521 41.3733 39.5191V39.5006ZM10.249 26.2683C8.64623 27.0086 9.76447 28.193 9.76447 28.193C12.7837 31.3946 16.4739 33.4119 20.015 34.6703C20.425 29.1183 20.3877 27.1381 20.3877 24.3436C14.9084 24.7137 11.74 25.6021 10.249 26.2683Z" fill="#EAAB00"/>
</svg>
