<svg width="137" height="68" viewBox="0 0 137 68" fill="none" xmlns="http://www.w3.org/2000/svg">
<g clip-path="url(#clip0)">
<path d="M14.4671 16.4598C14.0033 16.566 13.4859 16.8494 13.254 17.1327L12.8438 17.5931V26.8191C12.8438 35.4785 12.8616 36.116 13.2005 37.5327C13.5751 39.0202 14.253 40.49 15.1092 41.6056C16.0547 42.8275 18.3202 44.191 20.4608 44.8108C23.1009 45.5723 23.7609 45.6077 35.1598 45.6785L46.1661 45.7494L49.0382 48.6535C51.9993 51.6462 52.3918 51.9119 53.4799 51.6639C54.1757 51.5046 54.8892 50.8316 55.2281 49.9816C55.6563 48.9014 55.3887 48.4587 52.6772 45.7139L50.3047 43.3056V34.3806C50.3047 24.4639 50.269 24.1452 49.056 21.9139C48.4852 20.8337 46.7727 18.9212 46.1126 18.6202C45.9164 18.5316 45.524 18.3191 45.2207 18.1421C44.525 17.7171 42.8839 17.1681 41.207 16.7608C40.0118 16.4775 38.6383 16.4244 27.5784 16.3358C18.6056 16.265 15.0557 16.3004 14.4671 16.4598ZM39.334 20.515C42.7233 21.0639 44.3109 22.2858 45.185 25.0129C45.4704 25.8983 45.5061 26.7306 45.4526 33.7785L45.3991 41.5702L35.7484 41.6233C26.294 41.6587 23.7431 41.5702 22.1198 41.1098C20.8176 40.7556 19.5154 39.8171 18.8553 38.79C17.785 37.1077 17.7672 37.0014 17.7137 28.466C17.678 24.1806 17.6958 20.5858 17.7315 20.4619C17.8029 20.2848 19.8543 20.2316 27.6854 20.2316C35.9625 20.2316 37.8177 20.2848 39.334 20.515ZM1.21302 16.5306C0.945443 16.6369 0.570833 16.9733 0.356771 17.2921C0 17.8764 0 18.1066 0 31.1223V44.3681L0.624349 44.9525C1.56979 45.8379 2.6401 45.9264 3.71042 45.2358C4.63802 44.6337 4.63802 44.7577 4.63802 30.8566V17.9827L4.22773 17.3806C3.56771 16.4066 2.46172 16.0879 1.21302 16.5306ZM68.7319 16.5129C67.84 16.5837 67.0194 16.7077 66.9302 16.7608C66.8232 16.8139 66.3237 16.9556 65.8064 17.0441C64.1652 17.3629 61.9533 18.5494 60.7046 19.8066C60.0802 20.4087 59.5094 21.0994 59.4023 21.3296C59.3132 21.5421 59.1526 21.8608 59.0813 22.0025C58.6175 22.7994 58.4747 23.1712 58.3142 24.0035C58.2072 24.5171 58.0466 25.2431 57.9574 25.6327C57.8861 26.0223 57.8147 28.4129 57.8147 30.9452C57.8147 33.4775 57.8861 35.8681 57.9574 36.2577C58.0466 36.6473 58.2072 37.3556 58.2964 37.8514C58.7602 40.0296 60.8829 42.8098 62.7917 43.7306C64.0582 44.3327 64.8788 44.6691 65.1107 44.6691C65.2177 44.6691 65.6815 44.7754 66.1453 44.9171C67.84 45.4129 70.1055 45.5546 76.5452 45.5546C82.9492 45.5546 86.5169 45.3244 87.4089 44.8462C87.5872 44.74 87.8905 44.6691 88.051 44.6691C88.4435 44.6691 90.4771 43.6952 91.4582 43.04C92.8496 42.1014 94.3124 40.065 94.7227 38.4889C94.8119 38.1348 94.9724 37.5327 95.0616 37.1431C95.2935 36.24 95.3113 25.6858 95.0794 24.7827C94.9724 24.4285 94.8297 23.8619 94.7583 23.5431C94.1697 21.3473 92.3323 19.1691 90.1738 18.1244C88.4792 17.3098 88.4257 17.2921 86.6953 16.8494C85.2861 16.5129 84.6439 16.4775 77.776 16.4244C73.7089 16.3889 69.6417 16.4244 68.7319 16.5129ZM84.7866 20.515C87.8191 21.1525 89.2105 22.2504 90.1917 24.7473C90.4949 25.5619 90.5306 26.1108 90.5306 30.9452C90.5306 35.7796 90.4949 36.3285 90.1917 37.1431C89.2997 39.3921 88.0689 40.5077 85.625 41.2337C84.5547 41.5525 83.8768 41.5702 76.5273 41.5702C68.8211 41.5702 68.5535 41.5525 67.394 41.1806C65.7529 40.6494 65.3247 40.4014 64.4685 39.4983C63.6122 38.6129 63.309 38.0639 62.8987 36.665C62.4884 35.2129 62.4884 26.6775 62.8987 25.2254C63.6836 22.5337 65.0928 21.2587 68.054 20.5681C69.8736 20.1431 82.86 20.09 84.7866 20.515ZM111.937 16.4952C107.977 16.8139 104.98 18.0181 103.892 19.7181C103.053 21.0462 102.857 21.9139 102.857 24.3931C102.875 29.4754 104.338 31.7066 108.191 32.4858C108.69 32.5921 113.56 32.716 119.251 32.7869C129.222 32.9108 129.436 32.9285 130.221 33.3004C130.667 33.5129 131.149 33.7962 131.31 33.9025C132.166 34.5931 132.487 35.9921 132.273 38.2056C132.166 39.4629 132.094 39.6223 131.488 40.2244C131.042 40.6671 130.489 40.9681 129.686 41.216C128.598 41.5525 127.974 41.5702 119.161 41.5702C109.868 41.5702 109.796 41.5702 108.993 41.1806C107.905 40.6494 107.656 40.4369 107.227 39.5869C106.443 38.0994 105.212 37.6035 103.785 38.1879C102.839 38.5775 102.661 38.9139 102.679 40.1358C102.714 42.3671 104.248 43.9785 107.12 44.8462C109.493 45.5369 111.063 45.6431 119.786 45.6431C128.509 45.6431 129.597 45.5723 131.827 44.8462C133.183 44.4035 133.753 44.0848 134.663 43.3233C136.322 41.9066 137 40.1181 137 37.1431C137 33.3181 135.858 31.1577 133.183 29.9004C131.185 28.9619 130.079 28.8733 119.839 28.7848C109.118 28.6962 109.225 28.6962 108.155 27.315C107.566 26.5889 107.566 26.5535 107.566 24.6587C107.566 23.0296 107.62 22.64 107.941 22.1087C108.44 21.241 109.19 20.8514 110.902 20.4973C112.151 20.2494 113.453 20.2139 120.178 20.2671C127.028 20.3202 128.099 20.3733 128.919 20.6389C129.936 20.9754 130.774 21.7014 131.22 22.6223C131.631 23.4723 132.469 23.9504 133.557 23.9504C135.733 23.9504 136.358 21.8608 134.895 19.5056C134.164 18.3369 132.647 17.4691 130.221 16.8316C128.99 16.5129 128.223 16.4775 121.213 16.4244C117.003 16.3889 112.829 16.4244 111.937 16.4952Z" fill="#EAAB00"/>
</g>
<defs>
<clipPath id="clip0">
<rect width="137" height="68" fill="white"/>
</clipPath>
</defs>
</svg>
