<svg width="77" height="77" viewBox="0 0 77 77" fill="none" xmlns="http://www.w3.org/2000/svg">
<path d="M38.5 0C17.2769 0 0 17.264 0 38.5C0 59.7231 17.2769 77 38.5 77C59.7231 77 77 59.7231 77 38.5C77 17.2608 59.7231 0 38.5 0ZM3.88208 38.4968C3.88208 33.4822 4.95046 28.7178 6.87867 24.4154L23.3952 69.6529C11.842 64.0351 3.88208 52.1932 3.88208 38.4968ZM38.5 73.1179C35.0992 73.1179 31.8235 72.6206 28.721 71.703L39.1064 41.5255L49.742 70.6796C49.819 70.8528 49.8992 71.0036 49.989 71.1608C46.4021 72.4185 42.5361 73.1179 38.5 73.1179ZM43.2644 22.2819V22.2787C45.3434 22.1696 47.2203 21.9546 47.2203 21.9546C49.0843 21.7365 48.8661 18.9901 47.0021 19.096C47.0021 19.096 41.3971 19.5291 37.7813 19.5291C34.3805 19.5291 28.6665 19.096 28.6665 19.096C26.8056 18.9869 26.5907 21.8455 28.4515 21.9546C28.4515 21.9546 30.2193 22.1728 32.0833 22.2787L37.4701 37.0563L29.8953 59.768L17.2929 22.2787C19.3751 22.1696 21.252 21.9546 21.252 21.9546C23.116 21.7365 22.8979 18.9901 21.0338 19.096C21.0338 19.096 15.4289 19.5291 11.8131 19.5291C11.1618 19.5291 10.3982 19.5131 9.57687 19.4842C15.7722 10.0902 26.4046 3.88208 38.5 3.88208C47.5058 3.88208 55.7159 7.33104 61.8791 12.9617C61.7219 12.9456 61.584 12.9328 61.43 12.9328C58.0291 12.9328 55.6229 15.8973 55.6229 19.08C55.6229 21.9354 57.2687 24.3416 59.0237 27.2003C60.3423 29.4974 61.8823 32.4619 61.8823 36.7483C61.8823 39.7128 60.7498 43.1425 59.2419 47.9421L55.7929 59.4761L43.2644 22.2819ZM68.8829 21.8905C71.5843 26.8281 73.1211 32.478 73.1211 38.5032C73.1211 51.2788 66.1975 62.4245 55.9052 68.4177L55.902 68.4145L66.4735 37.8455C68.4434 32.9079 69.1139 28.968 69.1139 25.4421C69.1139 24.1716 69.0369 22.9909 68.8829 21.8905Z" fill="#EAAB00"/>
</svg>
