<svg width="21" height="21" fill="none" xmlns="http://www.w3.org/2000/svg"><path d="M12.51 10.5a2.01 2.01 0 11-4.02 0 2.01 2.01 0 014.02 0z" fill="#005AD2"/><path d="M15.2 6.944a1.868 1.868 0 00-.451-.693 1.867 1.867 0 00-.694-.451c-.212-.083-.531-.18-1.119-.208-.636-.029-.826-.035-2.436-.035-1.61 0-1.801.006-2.437.035-.588.027-.907.125-1.12.208a1.86 1.86 0 00-.692.45 1.87 1.87 0 00-.452.694c-.082.213-.18.532-.207 1.12-.03.635-.035.826-.035 2.436 0 1.61.006 1.8.035 2.437.027.587.125.907.207 1.119.097.262.251.499.451.693.195.2.432.355.694.451.212.083.531.181 1.12.208.635.029.825.035 2.435.035s1.801-.006 2.437-.035c.588-.027.907-.125 1.12-.208a1.996 1.996 0 001.144-1.144c.082-.212.18-.532.207-1.12.03-.635.036-.826.036-2.436 0-1.61-.007-1.8-.036-2.436-.026-.588-.124-.907-.207-1.12zm-4.7 6.652a3.096 3.096 0 110-6.192 3.096 3.096 0 010 6.192zm3.218-5.59a.724.724 0 110-1.448.724.724 0 010 1.447z" fill="#005AD2"/><path d="M10.5 0C4.702 0 0 4.702 0 10.5S4.702 21 10.5 21 21 16.298 21 10.5 16.298 0 10.5 0zm5.993 12.986c-.03.642-.131 1.08-.28 1.463a3.083 3.083 0 01-1.764 1.764c-.383.149-.821.25-1.463.28-.643.03-.848.036-2.486.036-1.637 0-1.843-.007-2.486-.036-.641-.03-1.08-.131-1.463-.28a2.954 2.954 0 01-1.068-.696 2.954 2.954 0 01-.696-1.068c-.149-.383-.25-.821-.28-1.463-.03-.643-.036-.849-.036-2.486 0-1.637.007-1.843.036-2.486.03-.642.131-1.08.28-1.463.152-.403.389-.767.696-1.068a2.953 2.953 0 011.068-.696c.383-.149.821-.25 1.463-.28.643-.03.849-.036 2.486-.036 1.637 0 1.843.007 2.486.036.642.03 1.08.131 1.463.28.403.152.767.389 1.068.696.307.301.544.665.696 1.068.149.383.25.821.28 1.463.03.643.036.849.036 2.486 0 1.637-.007 1.843-.036 2.486z" fill="#005AD2"/></svg>