<svg width="21" height="21" fill="none" xmlns="http://www.w3.org/2000/svg"><path d="M10.5 0C4.7 0 0 4.7 0 10.5c0 4.442 2.763 8.23 6.66 9.765-.016-.359-.014-2.217 1.28-7.764.172-1.85-.068-2.507-.068-3.275 0-1.745.906-2.113 1.436-2.113.754 0 1.797.289 1.797 1.505 0 1.393-1.136 1.76-1.136 1.76s-.082.356-.176 1.345c-.094.992.302 2.066 1.92 2.066 2.594 0 2.993-3.6 2.993-4.591 0-1.369-1.003-4.147-4.117-4.147-4.153 0-4.867 3.72-4.867 4.713 0 .425.117 1.174.197 1.494.784.127.703 1.2.368 1.505-.373.336-2.289.735-2.289-3.47 0-4.006 3.57-6.07 6.703-6.07 2.982 0 6.23 2.059 6.23 6.022 0 3.539-2.543 6.325-5.215 6.325-1.604 0-2.455-1.322-2.455-1.322 0 1.238-2.272 5.49-2.563 6.03 1.18.46 2.459.721 3.802.721C16.299 21 21 16.3 21 10.5S16.298 0 10.5 0z" fill="#005AD2"/></svg>