<svg width="138" height="138" fill="none" xmlns="http://www.w3.org/2000/svg"><path d="M69 0C30.892 0 0 30.892 0 69c0 38.107 30.892 69 69 69 38.107 0 69-30.893 69-69-.041-38.09-30.909-68.96-69-69zm0 128.143c-32.664 0-59.143-26.479-59.143-59.143S36.337 9.857 69 9.857c32.664 0 59.143 26.48 59.143 59.143-.036 32.649-26.494 59.107-59.143 59.143z" fill="#EAAB00"/><path d="M98.058 66.801a4.93 4.93 0 00-2.213-2.212L56.417 44.874a4.929 4.929 0 00-7.132 4.411v39.43a4.929 4.929 0 007.132 4.41l39.428-19.714a4.928 4.928 0 002.213-6.61zM59.142 80.74V57.26L82.623 69l-23.48 11.74z" fill="#EAAB00"/></svg>