<svg width="26" height="21" fill="none" xmlns="http://www.w3.org/2000/svg"><path d="M25.386 2.442c-.944.414-1.95.688-2.998.822a5.176 5.176 0 002.29-2.877 10.401 10.401 0 01-3.301 1.26 5.203 5.203 0 00-9.003 3.559c0 .412.035.809.12 1.187C8.169 6.182 4.34 4.108 1.769.949a5.24 5.24 0 00-.713 2.63c0 1.803.928 3.4 2.312 4.326a5.14 5.14 0 01-2.352-.641v.057a5.229 5.229 0 004.17 5.114 5.196 5.196 0 01-1.364.17c-.334 0-.67-.018-.986-.088.675 2.061 2.588 3.576 4.863 3.626a10.458 10.458 0 01-6.452 2.22c-.427 0-.837-.02-1.246-.072a14.652 14.652 0 007.984 2.335c9.577 0 14.813-7.933 14.813-14.81 0-.23-.008-.452-.02-.672a10.384 10.384 0 002.61-2.702z" fill="#005AD2"/></svg>