<svg width="25" height="25" viewBox="0 0 25 25" fill="none" xmlns="http://www.w3.org/2000/svg">
<path d="M21.7773 1.95312H19.5312V0.78125C19.5312 0.349805 19.1815 0 18.75 0C18.3185 0 17.9688 0.349805 17.9688 0.78125V1.95312H7.03125V0.78125C7.03125 0.349805 6.68149 0 6.25 0C5.81851 0 5.46875 0.349805 5.46875 0.78125V1.95312H3.22266C1.44565 1.95312 0 3.39878 0 5.17578V21.7773C0 23.5543 1.44565 25 3.22266 25H21.7773C23.5543 25 25 23.5543 25 21.7773V5.17578C25 3.39878 23.5543 1.95312 21.7773 1.95312ZM23.4375 21.7773C23.4375 22.6942 22.6942 23.4375 21.7773 23.4375H3.22266C2.30576 23.4375 1.5625 22.6942 1.5625 21.7773V8.83789C1.5625 8.70308 1.67183 8.59375 1.80664 8.59375H23.1934C23.3282 8.59375 23.4375 8.70308 23.4375 8.83789V21.7773Z" fill="#EAAB00"/>
</svg>
