<svg width="21" height="21" viewBox="0 0 21 21" fill="none" xmlns="http://www.w3.org/2000/svg">
<path d="M10.4992 0C4.70054 0 0 4.70054 0 10.4992C0 14.9416 2.76329 18.7309 6.66074 20.2649C6.64353 19.906 6.64598 18.0482 7.93912 12.5012C8.11203 10.6508 7.87193 9.99438 7.87193 9.22571C7.87193 7.48104 8.77827 7.11309 9.30766 7.11309C10.0624 7.11309 11.1048 7.40155 11.1048 8.61765C11.1048 10.0108 9.96898 10.3771 9.96898 10.3771C9.96898 10.3771 9.88703 10.7336 9.79279 11.7235C9.69855 12.7151 10.0952 13.7886 11.7128 13.7886C14.3065 13.7886 14.7064 10.1886 14.7064 9.19785C14.7064 7.82931 13.7033 5.05128 10.5893 5.05128C6.4362 5.05128 5.72161 8.77172 5.72161 9.76411C5.72161 10.1886 5.8388 10.9376 5.91911 11.258C6.70335 11.385 6.62222 12.4586 6.28705 12.7634C5.91419 13.0986 3.99824 13.4977 3.99824 9.29209C3.99824 5.28729 7.5679 3.22384 10.7008 3.22384C13.6829 3.22384 16.9313 5.28155 16.9313 9.24538C16.9313 12.7839 14.3876 15.5701 11.7161 15.5701C10.1116 15.5701 9.26095 14.2483 9.26095 14.2483C9.26095 15.4857 6.98853 19.738 6.69761 20.278C7.87766 20.7378 9.15687 20.9992 10.5 20.9992C16.2986 20.9992 21 16.2986 21 10.4992C21 4.69972 16.2978 0 10.4992 0Z" fill="#005AD2"/>
</svg>
