<svg width="138" height="138" viewBox="0 0 138 138" fill="none" xmlns="http://www.w3.org/2000/svg">
<path d="M68.9999 0C30.8923 0 0 30.8923 0 68.9999C0 107.107 30.8923 138 68.9999 138C107.107 138 138 107.107 138 68.9999C137.959 30.9093 107.091 0.0407184 68.9999 0ZM68.9999 128.143C36.3362 128.143 9.85704 101.664 9.85704 68.9999C9.85704 36.3362 36.3362 9.85704 68.9999 9.85704C101.664 9.85704 128.143 36.3362 128.143 68.9999C128.107 101.649 101.649 128.107 68.9999 128.143Z" fill="#EAAB00"/>
<path d="M98.0581 66.8013C97.5804 65.8431 96.8039 65.0663 95.8454 64.5886L56.4169 44.8743C53.9819 43.6576 51.0219 44.645 49.805 47.08C49.4628 47.7647 49.2849 48.5199 49.2852 49.2854V88.7142C49.284 91.4362 51.4894 93.6437 54.2115 93.6451C54.9771 93.6454 55.7322 93.4675 56.4169 93.1253L95.8454 73.4109C98.2816 72.1969 99.2724 69.2375 98.0581 66.8013ZM59.1425 80.7397V57.2599L82.6223 68.9998L59.1425 80.7397Z" fill="#EAAB00"/>
</svg>
