<svg width="26" height="21" viewBox="0 0 26 21" fill="none" xmlns="http://www.w3.org/2000/svg">
<path d="M25.3864 2.44185C24.4423 2.85597 23.4364 3.13046 22.3876 3.26374C23.4665 2.61956 24.29 1.60728 24.6772 0.387142C23.6712 0.986896 22.5606 1.41053 21.3769 1.64694C20.4218 0.6299 19.0604 0 17.5753 0C14.694 0 12.3743 2.33872 12.3743 5.2058C12.3743 5.61832 12.4092 6.01499 12.4949 6.39261C8.16807 6.18158 4.33948 4.10783 1.76753 0.948816C1.31851 1.72786 1.05512 2.61956 1.05512 3.57948C1.05512 5.38191 1.98331 6.97967 3.36687 7.90469C2.5307 7.88882 1.71041 7.64606 1.01546 7.26368C1.01546 7.27955 1.01546 7.30017 1.01546 7.3208C1.01546 9.84992 2.81947 11.9506 5.18517 12.4346C4.76153 12.5504 4.29982 12.6059 3.82065 12.6059C3.48745 12.6059 3.15108 12.5869 2.83534 12.5171C3.50967 14.5781 5.42317 16.0934 7.69842 16.1426C5.92772 17.5277 3.67944 18.3623 1.24552 18.3623C0.818711 18.3623 0.409355 18.3432 0 18.2909C2.3054 19.7776 5.03761 20.6264 7.98402 20.6264C17.561 20.6264 22.797 12.6932 22.797 5.81665C22.797 5.58659 22.789 5.36446 22.7779 5.14392C23.8108 4.41088 24.6787 3.49539 25.3864 2.44185Z" fill="#005AD2"/>
</svg>
