<svg width="61" height="39" fill="none" xmlns="http://www.w3.org/2000/svg"><path d="M31.428 26.557c0-4.697-2.235-8.17-6.851-9.471 3.368-1.605 5.125-4.035 5.125-7.815C29.702 1.818 24.13 0 17.7 0H0v37.422h18.196c6.823 0 13.232-3.261 13.232-10.865zM8.252 6.388h7.743c2.977 0 5.656.834 5.656 4.276 0 3.178-2.084 4.456-5.033 4.456H8.252V6.388zm-.003 24.679V20.761h8.994c3.633 0 5.93 1.51 5.93 5.344 0 3.78-2.742 4.962-6.1 4.962H8.249zm39.533 7.065c6.492 0 10.697-2.916 12.72-9.114h-6.589c-.71 2.313-3.633 3.536-5.9 3.536-4.375 0-6.673-2.555-6.673-6.897h19.607c.62-8.688-4.22-16.094-13.168-16.094-8.285 0-13.908 6.208-13.908 14.34 0 8.44 5.328 14.229 13.91 14.229zm-.234-22.945c3.75 0 5.635 2.196 5.95 5.788H41.35c.246-3.562 2.618-5.788 6.198-5.788zM39.827 1.965H55.05v3.686H39.827V1.965z" fill="#EAAB00"/></svg>