<svg width="129" height="53" fill="none" xmlns="http://www.w3.org/2000/svg"><path d="M111.487 23.048c-2.181.5-7.94.777-7.94.777l-.708 2.258s2.852-.24 4.939-.037c0 0 .671-.055.745.74.038.815-.055 1.666-.055 1.666s-.056.5-.746.63c-.801.129-6.206.37-6.206.37l-.876 2.924s-.317.666.41.48c.671-.184 6.337-1.258 7.082-1.11.783.185 1.677 1.259 1.417 2.221-.299 1.166-5.964 4.756-9.394 4.516 0 0-1.808.11-3.317-2.314-1.454-2.313.503-6.662.503-6.662s-.876-2.036-.223-2.776c0 0 .372-.315 1.49-.407l1.398-2.85s-1.584.092-2.516-1.055c-.857-1.11-.932-1.592-.26-1.888.707-.37 7.268-1.536 11.778-1.388 0 0 1.584-.185 2.982 2.536 0 0 .634 1.11-.485 1.37h-.018zM94.49 34.004c-.56 1.351-2.106 2.776-3.97 1.906-1.901-.888-4.902-6.958-4.902-6.958s-1.118-2.258-1.342-2.184c0 0-.242-.444-.372 2.036-.187 2.461.037 7.254-.988 8.013-.932.74-2.05.426-2.684-.444-.522-.87-.745-2.961-.447-6.607.335-3.646 1.174-7.532 2.236-8.735 1.118-1.221 2.013-.333 2.349 0 0 0 1.435 1.295 3.858 5.126l.41.703s2.199 3.646 2.422 3.628c0 0 .187.185.336.037.224-.056.149-1.24.149-1.24s-.41-3.942-2.46-10.605c0 0-.298-.85-.093-1.665.186-.74.987-.37.987-.37s3.094 1.48 4.604 6.477c1.49 4.997.484 9.531-.075 10.882h-.018zM79.319 21.18c-.298.518-.429 1.24-1.715 1.444 0 0-12.487.87-13.102 1.74 0 0-.41.517.261.647.708.148 3.541.518 4.883.592 1.454 0 6.337.037 8.126 2.22 0 0 1.025 1.037.988 3.388-.038 2.405-.466 3.257-1.417 4.127-.987.814-9.449 4.59-14.91-1.185 0 0-2.497-2.776.876-4.886 0 0 2.423-1.48 8.63.241 0 0 1.863.666 1.789 1.351-.112.74-1.547 1.48-3.635 1.443-2.012-.055-3.503-1.017-3.205-.85.28.092-2.18-1.185-2.945-.315-.745.814-.559 1.295.186 1.795 1.864 1.073 9.189.684 11.37-1.74 0 0 .875-.98-.448-1.777-1.305-.74-5.107-1.203-6.58-1.258-1.397-.074-6.634 0-7.417-1.351 0 0-.745-.962.075-3.59.857-2.776 6.952-3.85 9.598-4.072 0 0 7.269-.296 8.63 1.185 0 0 .186.333-.038.832v.019zM58.706 37.446c-.876.648-2.74.37-3.28-.37-.522-.648-.708-3.202-.615-7.217.13-4.109.186-9.143 1.118-9.957.932-.796 1.491-.093 1.864.444.373.555.857 1.166.932 2.443.111 1.295.428 7.958.428 7.958s.41 6.07-.428 6.7h-.019zm1.864-21.652c-2.572.87-4.324.592-5.815-.056-.652 1.166-1.044 1.518-1.528 1.592-.746.074-1.398-1.11-1.491-1.481-.15-.278-.503-.777-.075-1.906-1.454-1.296-1.565-3.035-1.305-4.201.336-1.37 2.796-6.515 10.251-7.125 0 0 3.653-.26 4.287 1.665h.111s3.541 0 3.467 3.146c0 3.147-3.914 7.07-7.902 8.421v-.056zm3.317-8.958c-2.348.37-5.964 3.48-7.697 6.052 2.665.481 7.324.296 9.412-3.886 0 0 .988-2.628-1.715-2.166zM53.581 8.872c-.746 1.203-.783 1.925-.429 2.406.876-1.296 2.423-3.331 4.753-4.923-1.79.185-3.3.925-4.324 2.517zm63.497 28.445c-1.715 4.182-3.168 8.42-4.007 14.768 0 0-.186 1.24-1.211.833-1.025-.37-2.703-2.036-3.076-4.386-.372-3.072 1.007-8.254 3.821-14.213-.82-1.296-1.398-3.22-.932-5.922 0 0 .746-4.997 5.778-9.513 0 0 .596-.5.932-.333.41.185.242 1.777-.094 2.59-.298.778-2.534 4.628-2.534 4.628s-1.398 2.628-1.007 4.682c2.647-4.035 8.667-12.215 12.394-9.624 2.367 1.666 2.367 7.033.597 10.142-1.398 2.461-5.349 7.55-10.624 6.366l-.037-.018zm7.79-12.566c-1.379 1.48-3.839 4.293-5.777 8.106 2.05-.222 4.044-1.351 4.659-1.925.988-.87 3.262-3.22 2.908-6.33 0 0-.224-1.628-1.79.149zM41.373 39.5c-6.597 1.998-12.822 1.073-16.214.185-.093 1.37-.242 1.943-.466 2.165-.261.296-2.423 1.517-3.616-.222-.522-.833-.783-2.332-.932-3.701-7.64-3.443-11.182-8.514-11.294-8.699-.186-.185-1.92-1.98-.186-4.2 1.621-2 6.989-4.017 11.797-4.812.187-4.072.634-7.218 1.212-8.606.69-1.666 1.565-.185 2.348.925.634.833 1.025 4.405 1.062 7.255 3.131-.148 5.032.074 8.518.74 4.584.777 7.64 3.11 7.399 5.737-.224 2.591-2.61 3.665-3.541 3.739-.932.074-2.423-.611-2.423-.611-1.044-.481-.093-.925 1.118-1.444 1.342-.647 1.044-1.295 1.044-1.295-.485-1.48-6.43-2.462-12.338-2.462 0 3.24.13 8.606.223 11.734 4.138.777 7.232.61 7.232.61s15.096-.425 15.524-9.993c.466-9.587-15.096-18.766-26.558-21.653C9.839 1.912 3.353 4.022 2.794 4.3c-.615.296-.056.407-.056.407s.615.093 1.733.463c1.119.37.224.925.224.925-1.957.666-4.137.278-4.566-.61-.429-.87.28-1.666 1.118-2.832.783-1.203 1.678-1.166 1.678-1.166 14.164-4.904 31.46 3.886 31.46 3.886C50.561 13.48 53.32 23.011 53.021 26.712c-.261 3.646-1.678 9.809-11.649 12.807v-.018zM10.25 26.268c-1.603.74-.485 1.925-.485 1.925 3.02 3.202 6.71 5.219 10.251 6.477.41-5.552.373-7.532.373-10.326-5.48.37-8.648 1.258-10.139 1.924z" fill="#EAAB00"/></svg>