<svg width="137" height="68" fill="none" xmlns="http://www.w3.org/2000/svg"><g clip-path="url(#clip0)"><path d="M14.467 16.46c-.464.106-.981.39-1.213.673l-.41.46v9.226c0 8.66.018 9.297.357 10.714.374 1.487 1.052 2.957 1.908 4.073.946 1.221 3.211 2.585 5.352 3.205 2.64.761 3.3.797 14.699.867l11.006.071 2.872 2.904c2.961 2.993 3.354 3.259 4.442 3.01.696-.158 1.41-.831 1.748-1.681.428-1.08.16-1.523-2.55-4.268l-2.373-2.408V34.38c0-9.917-.036-10.236-1.249-12.467-.57-1.08-2.283-2.993-2.943-3.294a12.376 12.376 0 01-.892-.478c-.696-.425-2.337-.974-4.014-1.381-1.195-.284-2.569-.337-13.629-.425-8.972-.071-12.522-.036-13.11.124zm24.867 4.055c3.39.549 4.977 1.77 5.851 4.498.285.885.321 1.718.268 8.765l-.054 7.792-9.65.053c-9.455.036-12.006-.053-13.63-.513-1.301-.354-2.604-1.293-3.264-2.32-1.07-1.682-1.088-1.789-1.141-10.324-.036-4.285-.018-7.88.018-8.004.07-.177 2.122-.23 9.953-.23 8.277 0 10.133.053 11.649.283zM1.213 16.531c-.268.106-.642.442-.856.761C0 17.876 0 18.107 0 31.122v13.246l.624.584c.946.886 2.016.974 3.086.284.928-.602.928-.478.928-14.38V17.984l-.41-.602c-.66-.974-1.766-1.293-3.015-.85zm67.519-.018c-.892.07-1.713.195-1.802.248-.107.053-.606.195-1.124.283-1.64.319-3.853 1.505-5.101 2.763-.625.602-1.196 1.292-1.303 1.523-.089.212-.25.53-.32.673-.465.796-.607 1.168-.768 2-.107.514-.267 1.24-.357 1.63-.07.39-.142 2.78-.142 5.312 0 2.532.071 4.923.142 5.313.09.39.25 1.098.34 1.593.463 2.179 2.586 4.959 4.495 5.88 1.266.602 2.087.938 2.319.938.107 0 .57.106 1.034.248 1.695.496 3.96.638 10.4.638 6.404 0 9.972-.23 10.864-.709.178-.106.481-.177.642-.177.392 0 2.426-.974 3.407-1.629 1.392-.939 2.854-2.975 3.265-4.551.089-.354.25-.956.339-1.346.231-.903.25-11.457.017-12.36-.107-.355-.25-.921-.32-1.24-.59-2.196-2.427-4.374-4.585-5.419-1.695-.814-1.748-.832-3.479-1.275-1.409-.336-2.051-.372-8.919-.425-4.067-.035-8.134 0-9.044.089zm16.055 4.002c3.032.637 4.423 1.735 5.405 4.232.303.815.339 1.364.339 6.198 0 4.835-.036 5.383-.34 6.198-.891 2.25-2.122 3.365-4.566 4.09-1.07.32-1.748.337-9.098.337-7.706 0-7.974-.017-9.133-.39-1.641-.53-2.07-.779-2.925-1.682-.857-.885-1.16-1.434-1.57-2.833-.41-1.452-.41-9.988 0-11.44.785-2.691 2.194-3.966 5.155-4.657 1.82-.425 14.806-.478 16.733-.053zm27.15-4.02c-3.96.319-6.957 1.523-8.045 3.223-.839 1.328-1.035 2.196-1.035 4.675.018 5.082 1.481 7.314 5.334 8.093.499.106 5.369.23 11.06.3 9.971.125 10.185.142 10.97.514.446.213.928.496 1.089.603.856.69 1.177 2.09.963 4.303-.107 1.257-.179 1.416-.785 2.018-.446.443-.999.744-1.802.992-1.088.337-1.712.354-10.525.354-9.293 0-9.365 0-10.168-.39-1.088-.53-1.337-.743-1.766-1.593-.784-1.488-2.015-1.984-3.442-1.4-.946.39-1.124.727-1.106 1.949.035 2.231 1.569 3.842 4.441 4.71 2.373.69 3.943.797 12.666.797s9.811-.07 12.041-.797c1.356-.442 1.926-.761 2.836-1.523 1.659-1.416 2.337-3.205 2.337-6.18 0-3.825-1.142-5.985-3.817-7.243-1.998-.938-3.104-1.027-13.344-1.115-10.721-.089-10.614-.089-11.684-1.47-.589-.726-.589-.762-.589-2.656 0-1.63.054-2.019.375-2.55.499-.868 1.249-1.258 2.961-1.612 1.249-.248 2.551-.283 9.276-.23 6.85.053 7.921.106 8.741.372 1.017.336 1.855 1.062 2.301 1.983.411.85 1.249 1.328 2.337 1.328 2.176 0 2.801-2.09 1.338-4.444-.731-1.17-2.248-2.037-4.674-2.674-1.231-.32-1.998-.355-9.008-.408-4.21-.035-8.384 0-9.276.071z" fill="#EAAB00"/></g><defs><clipPath id="clip0"><path fill="#fff" d="M0 0h137v68H0z"/></clipPath></defs></svg>