<svg width="77" height="77" fill="none" xmlns="http://www.w3.org/2000/svg"><path d="M38.5 0C17.277 0 0 17.264 0 38.5 0 59.723 17.277 77 38.5 77S77 59.723 77 38.5C77 17.26 59.723 0 38.5 0zM3.882 38.497c0-5.015 1.068-9.78 2.997-14.082l16.516 45.238C11.842 64.035 3.882 52.193 3.882 38.497zM38.5 73.117c-3.4 0-6.677-.496-9.779-1.414l10.385-30.178L49.742 70.68c.077.173.157.324.247.48A34.662 34.662 0 0138.5 73.119zm4.764-50.835v-.003a72.764 72.764 0 003.956-.324c1.864-.218 1.646-2.965-.218-2.859 0 0-5.605.433-9.22.433-3.401 0-9.115-.433-9.115-.433-1.861-.11-2.076 2.75-.216 2.859 0 0 1.768.218 3.632.324l5.387 14.777-7.575 22.712-12.602-37.49a72.109 72.109 0 003.959-.323c1.864-.218 1.646-2.965-.218-2.859 0 0-5.605.433-9.22.433-.652 0-1.416-.016-2.237-.045C15.772 10.09 26.405 3.882 38.5 3.882c9.006 0 17.216 3.449 23.38 9.08a4.259 4.259 0 00-.45-.03c-3.4 0-5.807 2.965-5.807 6.148 0 2.855 1.646 5.262 3.4 8.12 1.32 2.297 2.86 5.262 2.86 9.548 0 2.965-1.133 6.395-2.641 11.194l-3.45 11.534-12.528-37.194zm25.619-.392a34.478 34.478 0 014.238 16.613c0 12.776-6.923 23.922-17.216 29.915l-.003-.004 10.572-30.569c1.97-4.937 2.64-8.877 2.64-12.403 0-1.27-.077-2.451-.231-3.552z" fill="#EAAB00"/></svg>