<svg width="68" height="55" fill="none" xmlns="http://www.w3.org/2000/svg"><path fill-rule="evenodd" clip-rule="evenodd" d="M62.64 16.266h3.385c.727 0 1.316.587 1.316 1.311v6.416c0 .724-.59 1.31-1.316 1.31h-1.85v3.293c0 9.528-7.186 17.415-16.442 18.56v1.94c0 3.05-2.489 5.53-5.548 5.53h-17.03c-3.059 0-5.548-2.48-5.548-5.53v-1.94c-9.255-1.145-16.442-9.032-16.442-18.56v-3.292h-1.85A1.313 1.313 0 010 23.993v-6.416c0-.724.589-1.31 1.315-1.31h8.827l-.988-1.012a7.508 7.508 0 01-6.365-2.137 7.52 7.52 0 010-10.646A7.514 7.514 0 018.13.267c2.018 0 3.914.783 5.34 2.205a7.458 7.458 0 012.14 6.367l7.263 7.427h2.975c.726 0 1.315.587 1.315 1.311s-.588 1.31-1.315 1.31H2.63v3.795h62.08v-3.794H37.74a1.313 1.313 0 01-1.316-1.31c0-.725.59-1.312 1.316-1.312h2.613C36.238 11.424 37.31 3.54 37.36 3.193a1.313 1.313 0 011.116-1.112c.346-.05 8.155-1.105 13.02 2.904C56.36.976 64.17 2.03 64.516 2.08a1.313 1.313 0 011.116 1.112c.05.347 1.121 8.231-2.992 13.073zM39.873 4.586c-.131 2.206-.087 7.457 2.902 10.437a8.229 8.229 0 001.618 1.243h2.765c.017-2.696.48-6.457 2.545-9.355-3.052-2.417-7.765-2.447-9.83-2.326zm16.341 9.07l-2.617 2.61h5.002a8.26 8.26 0 001.617-1.242c2.99-2.98 3.033-8.23 2.902-10.438-2.214-.131-7.48-.088-10.469 2.893-2.356 2.348-2.846 6.133-2.86 8.787h.088l4.477-4.462a1.318 1.318 0 011.86 0 1.307 1.307 0 010 1.853zm-46.92-1.093c.451-.11.927.027 1.252.36l3.27 3.344h5.383l-5.951-6.087a1.308 1.308 0 01-.337-1.223 4.868 4.868 0 00-1.302-4.631 4.897 4.897 0 00-3.48-1.437c-1.314 0-2.55.51-3.48 1.437a4.902 4.902 0 000 6.939 4.9 4.9 0 004.645 1.298zm32.891 39.442a2.916 2.916 0 002.918-2.908v-1.798H22.238v1.798a2.916 2.916 0 002.918 2.908h17.03zm3.222-7.327c8.898 0 16.138-7.215 16.138-16.083v-3.291H5.795v3.291c0 8.868 7.24 16.083 16.138 16.083h23.474zM31.961 18.69a1.23 1.23 0 01-1.402.034 1.228 1.228 0 01-.448-1.479 1.229 1.229 0 011.19-.75 1.23 1.23 0 011.107.881 1.23 1.23 0 01-.447 1.314z" fill="#EAAB00"/></svg>