<svg width="60" height="60" fill="none" xmlns="http://www.w3.org/2000/svg"><path fill-rule="evenodd" clip-rule="evenodd" d="M37.382 22.607a18.969 18.969 0 013.313-.293c10.386 0 18.836 8.45 18.836 18.837 0 10.386-8.45 18.836-18.836 18.836-10.387 0-18.837-8.45-18.837-18.837a1.163 1.163 0 012.326 0c0 8.714 6.784 15.871 15.348 16.47V33.593a1.163 1.163 0 012.325 0V57.62c8.564-.599 15.349-7.756 15.349-16.47 0-9.103-7.407-16.51-16.511-16.51-1.333 0-2.654.16-3.936.473a18.749 18.749 0 01-4.603 7.498 18.713 18.713 0 01-13.32 5.517c-5.032 0-9.762-1.96-13.319-5.517A18.713 18.713 0 010 19.291c0-5.03 1.96-9.76 5.517-13.318A18.713 18.713 0 0118.836.456c5.032 0 9.762 1.959 13.32 5.517a18.714 18.714 0 015.516 13.319c0 1.123-.098 2.231-.29 3.315zM18.836 35.802c4.41 0 8.557-1.717 11.675-4.835a16.402 16.402 0 004.835-11.675c0-4.41-1.717-8.557-4.835-11.675a16.402 16.402 0 00-11.675-4.836A16.39 16.39 0 008.012 6.824l19.793 19.792a1.163 1.163 0 01-1.645 1.645L6.368 8.468a16.388 16.388 0 00-4.043 10.824c0 4.41 1.718 8.556 4.836 11.675a16.402 16.402 0 0011.675 4.835zm21.859-8.022c.306 0 .606.124.822.34.216.217.34.517.34.822 0 .306-.124.606-.34.822a1.168 1.168 0 01-.822.341 1.167 1.167 0 01-1.163-1.163 1.167 1.167 0 011.163-1.162zM15.587 6.43a1.163 1.163 0 00-1.507-.73 1.163 1.163 0 00.776 2.193c.602-.205.93-.856.731-1.462zm2.637-1.522a14.436 14.436 0 0110.792 4.204 1.163 1.163 0 01-1.644 1.644 12.111 12.111 0 00-9.05-3.524 1.162 1.162 0 11-.098-2.324z" fill="#EAAB00"/></svg>