<svg width="63" height="74" fill="none" xmlns="http://www.w3.org/2000/svg"><path d="M62.464 50.645c-.016-.012-1.637-1.173-4.844-1.622a1.08 1.08 0 00-.3 2.137c1.607.225 2.725.654 3.337.943-.132.72-.477 2.02-1.375 3.625-1.294 2.31-4.028 5.744-9.711 8.982-1.717.978-3.808 1.84-6.046 2.493-2.983.87-5.808 1.083-8.396.629-1.225-.214-2.2-.502-3.072-.905a6.984 6.984 0 01-.14-.066l.028-.151c.18-.943.516-1.904 1.055-3.024 1.139-2.367 2.957-4.54 5.403-6.458 1.834-1.438 3.753-2.635 5.549-3.46 3.027-1.392 5.934-2.268 8.638-2.604a1.079 1.079 0 10-.266-2.142 24.58 24.58 0 00-1.246.189c2.18-7.34-.114-11.472-.144-11.526a1.079 1.079 0 00-.832-.533c-.236-.023-4.3-.34-9.552 3.508v-7.458a8.282 8.282 0 00-2.782-6.19l-4.401-3.905v-5.032h2.884a2.375 2.375 0 002.373-2.372v-2.466c0-1.103-.758-2.03-1.779-2.294v-7.97a2.822 2.822 0 00-2.819-2.82h-14.65a1.079 1.079 0 000 2.159h14.65c.365 0 .661.297.661.661v7.891H5.863v-7.89c0-.366.297-.662.662-.662h7.946a1.079 1.079 0 100-2.158H6.524a2.823 2.823 0 00-2.82 2.82v7.969a2.375 2.375 0 00-1.778 2.294v2.466A2.375 2.375 0 004.3 18.075h2.884v5.031l-4.4 3.906A8.282 8.282 0 000 33.202v35.147c0 3.072 2.5 5.571 5.57 5.571h29.41a5.578 5.578 0 005.295-3.847 23.943 23.943 0 003.855-.798c2.397-.7 4.648-1.63 6.51-2.69 12.115-6.904 12.255-14.996 12.255-15.077 0-.34-.16-.66-.431-.864zm-16.938-10.37c1.696-.714 3.025-.913 3.754-.963.237.693.571 1.995.572 3.836 0 1.611-.265 3.848-1.231 6.614a35.706 35.706 0 00-5.57 2.045c-.375.172-.754.36-1.136.56l1.641-2.475c.095.003.196.006.304.006.933 0 2.32-.146 3.355-.887a1.08 1.08 0 00-1.256-1.755c-.241.173-.558.287-.894.36l1.683-2.536a1.079 1.079 0 10-1.798-1.193l-1.684 2.54c-.063-.338-.08-.674-.014-.967a1.079 1.079 0 00-2.105-.474c-.313 1.385.228 2.886.61 3.714l-1.843 2.779c-.063-.338-.08-.674-.015-.964a1.079 1.079 0 10-2.106-.475c-.312 1.386.228 2.887.611 3.714 0 0-.97 1.47-.99 1.51-.114.088-.229.176-.343.266-.192.151-.38.304-.566.458 0-.152.012-.293.04-.418a1.079 1.079 0 00-2.105-.475c-.202.896-.043 1.844.194 2.618-1.516 1.558-2.715 3.243-3.579 5.037-.077.161-.151.32-.222.477a18.989 18.989 0 01-.02-.292c-.163-2.623.36-5.406 1.557-8.274.898-2.152 1.987-4.134 3.15-5.732 3.85-5.289 7.566-7.625 10.006-8.654zM4.3 15.917a.215.215 0 01-.215-.214v-2.466c0-.119.097-.215.215-.215h31.952c.118 0 .215.096.215.215v2.466a.215.215 0 01-.215.214H4.299zm26.91 2.158v4.438H9.341v-4.438h21.868zM2.158 33.202c0-1.748.75-3.416 2.057-4.576l4.457-3.956h23.206l4.457 3.956a6.122 6.122 0 012.057 4.576v3.47H2.158v-3.47zm0 5.628h36.234v3.602c-1.495 1.365-3.051 3.076-4.617 5.227-1.26 1.732-2.435 3.866-3.397 6.17-1.319 3.163-1.897 6.258-1.721 9.2H2.158v-24.2zm32.821 32.933H5.571a3.417 3.417 0 01-3.413-3.413v-3.162h26.757c.106.556.24 1.08.408 1.583.179.536.36 1.327.888 1.629.312.178.628.341.94.486 1.046.483 2.192.824 3.606 1.072a17.95 17.95 0 003.07.264 3.408 3.408 0 01-2.848 1.54z" fill="#EAAB00"/><path d="M52.392 54.52a1.079 1.079 0 10-1.604-1.442c-.95 1.055-1.212 2.63-1.282 3.538l-2.967 1.524c.11-.326.26-.627.458-.848a1.079 1.079 0 10-1.605-1.443c-.95 1.056-1.212 2.63-1.282 3.539l-2.967 1.523c.11-.326.26-.628.458-.849a1.079 1.079 0 10-1.605-1.442c-.95 1.055-1.212 2.629-1.282 3.538l-1.781.915a1.08 1.08 0 00.986 1.92l1.781-.915c.704.426 1.94 1.042 3.212 1.042.137 0 .274-.008.41-.023a1.079 1.079 0 10-.237-2.144c-.295.032-.627-.023-.956-.123l2.967-1.523c.704.427 1.94 1.042 3.212 1.042.137 0 .274-.007.41-.022a1.079 1.079 0 10-.237-2.145c-.296.032-.627-.023-.955-.123l2.965-1.523c.705.427 1.94 1.042 3.213 1.042.137 0 .274-.007.41-.022a1.079 1.079 0 10-.237-2.145c-.296.032-.627-.023-.955-.123l2.707-1.39a1.08 1.08 0 00-.986-1.92l-2.708 1.391c.11-.326.259-.628.457-.848z" fill="#EAAB00"/></svg>