<svg width="68" height="55" viewBox="0 0 68 55" fill="none" xmlns="http://www.w3.org/2000/svg">
<path fill-rule="evenodd" clip-rule="evenodd" d="M62.64 16.2664H66.0253C66.7517 16.2664 67.3406 16.8532 67.3406 17.5772V23.9927C67.3406 24.7165 66.7517 25.3035 66.0253 25.3035H64.1752V28.5955C64.1752 38.1241 56.9885 46.0112 47.7334 47.1566V49.0969C47.7334 52.1459 45.2444 54.6263 42.1851 54.6263H25.1555C22.0961 54.6263 19.6072 52.1459 19.6072 49.0969V47.1566C10.352 46.0112 3.1654 38.1241 3.1654 28.5955V25.3036H1.31525C0.588835 25.3036 0 24.7167 0 23.9929V17.5773C0 16.8534 0.588835 16.2665 1.31525 16.2665H10.1425L9.15358 15.2552C6.81613 15.5785 4.48302 14.807 2.78924 13.1181C-0.154804 10.1832 -0.154936 5.40752 2.78924 2.47232C4.21563 1.05027 6.11208 0.26709 8.12927 0.26709C10.1466 0.26709 12.043 1.05014 13.4693 2.47232C15.1682 4.16609 15.9416 6.50161 15.6093 8.83871L22.8723 16.2664H25.8471C26.5735 16.2664 27.1623 16.8532 27.1623 17.5772C27.1623 18.301 26.5735 18.8879 25.8471 18.8879H2.63049V22.682H64.7101V18.8879H37.7385C37.0121 18.8879 36.4232 18.301 36.4232 17.5772C36.4232 16.8532 37.0121 16.2664 37.7385 16.2664H40.3515C36.2383 11.4242 37.31 3.54033 37.3598 3.19311C37.4424 2.61637 37.8971 2.16324 38.4758 2.0808C38.8217 2.03164 46.631 0.976476 51.4958 4.98493C56.3606 0.976476 64.1696 2.03138 64.5157 2.0808C65.0944 2.16324 65.5491 2.61637 65.6317 3.19311C65.6815 3.54033 66.7532 11.4241 62.64 16.2664ZM39.8732 4.5854C39.7419 6.79247 39.7855 12.043 42.7752 15.0234C43.24 15.4869 43.7831 15.9041 44.393 16.2664H47.1585C47.175 13.5695 47.6383 9.80946 49.7026 6.9107C46.6514 4.49352 41.9378 4.46363 39.8732 4.5854ZM56.2144 13.6569L53.5969 16.2664H58.5985C59.2083 15.9043 59.7513 15.487 60.2162 15.0237C63.2056 12.0433 63.2495 6.79365 63.1181 4.58554C60.9043 4.45485 55.6388 4.49811 52.6493 7.47853C50.2934 9.82715 49.803 13.6123 49.7881 16.2664H49.8775L54.354 11.8037C54.8677 11.2915 55.7004 11.2915 56.214 11.8033C56.7277 12.3151 56.728 13.1451 56.2144 13.6569ZM9.29379 12.5632C9.74531 12.4539 10.2213 12.5905 10.5455 12.9223L13.8153 16.2665H19.1993L13.2477 10.1799C12.9319 9.85678 12.8048 9.39486 12.9114 8.95654C13.3196 7.27693 12.8327 5.5458 11.6089 4.32561C10.6794 3.39903 9.44373 2.88862 8.12927 2.88862C6.81495 2.88862 5.57914 3.39903 4.64966 4.32561C2.73071 6.2388 2.73071 9.35161 4.64979 11.2647C5.87336 12.4847 7.60962 12.9702 9.29379 12.5632ZM42.1851 52.0047C43.794 52.0047 45.1029 50.7001 45.1029 49.0968V47.2994H22.2376V49.0968C22.2376 50.7002 23.5466 52.0047 25.1555 52.0047H42.1851ZM45.4071 44.6779C54.3054 44.6779 61.5447 37.4633 61.5447 28.5953H61.5446V25.3035H5.79589V28.5953C5.79589 37.4633 13.0351 44.6779 21.9334 44.6779H45.4071ZM31.9613 18.6905C31.5523 18.993 30.9829 19.0079 30.5593 18.7253C30.0832 18.405 29.8888 17.7779 30.1108 17.2462C30.3077 16.7743 30.7895 16.4677 31.3016 16.4955C31.8149 16.5233 32.266 16.8838 32.4075 17.3774C32.5456 17.859 32.364 18.3926 31.9613 18.6905Z" fill="#EAAB00"/>
</svg>
