<svg width="60" height="60" viewBox="0 0 60 60" fill="none" xmlns="http://www.w3.org/2000/svg">
<path fill-rule="evenodd" clip-rule="evenodd" d="M37.3823 22.6071C38.4716 22.4139 39.58 22.3141 40.6946 22.3141C51.081 22.3141 59.5309 30.764 59.5309 41.1505C59.5309 51.5368 51.0811 59.9867 40.6947 59.9867C30.3083 59.9867 21.8584 51.5368 21.8584 41.1504C21.8584 40.5082 22.3791 39.9877 23.0211 39.9877C23.6632 39.9877 24.1838 40.5082 24.1838 41.1504C24.1838 49.8636 30.9684 57.0211 39.532 57.6198V33.5931C39.532 32.9509 40.0527 32.4304 40.6947 32.4304C41.3368 32.4304 41.8574 32.9509 41.8574 33.5931V57.6199C50.421 57.0212 57.2056 49.8636 57.2056 41.1505C57.2056 32.0465 49.7989 24.6396 40.6947 24.6396C39.3623 24.6396 38.0408 24.7999 36.759 25.1131C35.8541 27.91 34.2941 30.4727 32.1555 32.6113C28.5983 36.1685 23.8678 38.1277 18.8364 38.1277H18.8359C13.8043 38.1276 9.07416 36.1684 5.51695 32.6113C1.95929 29.0535 -0.00011627 24.3232 5.17475e-09 19.2916C0.000116272 14.2603 1.95952 9.53032 5.51695 5.97276C9.07451 2.41521 13.8047 0.455811 18.8359 0.455811C23.8675 0.455694 28.5977 2.41498 32.1554 5.97276C35.7125 9.52997 37.6716 14.2601 37.6718 19.2918C37.6719 20.4152 37.5735 21.5235 37.3823 22.6071ZM18.8359 35.8023C23.2467 35.8023 27.393 34.0851 30.5111 30.967C33.6294 27.8487 35.3466 23.7025 35.3465 19.2918C35.3463 14.8812 33.6292 10.7351 30.5111 7.61707C27.3926 4.49856 23.2463 2.78112 18.8359 2.78124C14.8157 2.78124 11.0153 4.20905 8.01237 6.82375L27.8048 26.6164C28.2588 27.0704 28.2588 27.8066 27.8048 28.2607C27.5777 28.4878 27.2801 28.6012 26.9826 28.6012C26.6851 28.6012 26.3875 28.4878 26.1604 28.2607L6.36794 8.46818C3.75324 11.471 2.32554 15.2714 2.32542 19.2918C2.32531 23.702 4.04275 27.8484 7.16138 30.967C10.2793 34.0849 14.4253 35.8022 18.8359 35.8023ZM40.695 27.7796C41.0007 27.7796 41.3007 27.9041 41.5169 28.1203C41.7333 28.3366 41.8577 28.6366 41.8577 28.9424C41.8577 29.2481 41.7331 29.5481 41.5169 29.7644C41.3007 29.9807 41.0007 30.1051 40.695 30.1051C40.388 30.1051 40.0892 29.9807 39.8729 29.7644C39.6555 29.5481 39.5322 29.2481 39.5322 28.9424C39.5322 28.6366 39.6555 28.3366 39.8729 28.1203C40.0892 27.9041 40.3879 27.7796 40.695 27.7796ZM15.5873 6.43057C15.3875 5.82015 14.7307 5.48726 14.1207 5.68667C14.1098 5.69027 14.0903 5.6969 14.0796 5.70085C13.4753 5.9184 13.1618 6.58452 13.3794 7.18866C13.5502 7.66282 13.997 7.95791 14.4734 7.95791C14.6005 7.95791 14.7295 7.93687 14.856 7.8928C15.4584 7.6884 15.7854 7.0367 15.5873 6.43057ZM18.2244 4.90834C22.2419 4.73835 26.1747 6.2708 29.0159 9.11212C29.4699 9.56616 29.4699 10.3024 29.0159 10.7564C28.7888 10.9834 28.4913 11.097 28.1937 11.097C27.8962 11.097 27.5987 10.9835 27.3716 10.7564C24.9892 8.37403 21.689 7.08993 18.3228 7.23178C17.6791 7.25853 17.1391 6.76077 17.1119 6.11919C17.0847 5.4776 17.5828 4.93543 18.2244 4.90834Z" fill="#EAAB00"/>
</svg>
