<svg width="63" height="74" viewBox="0 0 63 74" fill="none" xmlns="http://www.w3.org/2000/svg">
<path d="M62.4635 50.6445C62.4481 50.6328 60.8271 49.472 57.6198 49.0232C57.0296 48.9421 56.4844 49.352 56.4017 49.9423C56.3191 50.5326 56.7306 51.0777 57.3207 51.1604C58.9272 51.3852 60.0454 51.8135 60.6571 52.1027C60.5253 52.8234 60.1804 54.1223 59.2815 55.7281C57.9882 58.0382 55.2537 61.4716 49.5709 64.7096C47.8537 65.6881 45.763 66.5503 43.5249 67.2032C40.5418 68.0738 37.7171 68.2858 35.1289 67.832C33.9044 67.6176 32.9282 67.33 32.0568 66.927C32.0104 66.9057 31.964 66.8838 31.9175 66.8612C31.9264 66.8103 31.9355 66.7599 31.945 66.7099C32.1254 65.7667 32.4607 64.8057 32.9996 63.6858C34.139 61.3186 35.9569 59.1458 38.4026 57.2283C40.2374 55.7897 42.1564 54.593 43.952 53.7675C46.9793 52.3757 49.8857 51.4997 52.5903 51.1637C53.1816 51.0904 53.6014 50.5513 53.528 49.96C53.4545 49.3686 52.9162 48.9487 52.3242 49.0224C51.9127 49.0734 51.4971 49.1372 51.0781 49.2109C53.2578 41.8713 50.9644 37.7389 50.9336 37.6855C50.759 37.3838 50.4495 37.1853 50.1024 37.152C49.8663 37.1295 45.8025 36.8124 40.5499 40.6604V33.2019C40.5499 30.8377 39.5358 28.5818 37.7677 27.0124L33.367 23.1065V18.0754H36.2507C37.5592 18.0754 38.6235 17.0109 38.6235 15.7026V13.2369C38.6235 12.1341 37.8664 11.2076 36.8453 10.9425V2.97308C36.8454 1.4185 35.5807 0.153809 34.0263 0.153809H19.3761C18.7802 0.153809 18.2972 0.636894 18.2972 1.23279C18.2972 1.82869 18.7802 2.31177 19.3761 2.31177H34.0263C34.391 2.31177 34.6875 2.60857 34.6875 2.97308V10.8641H5.86229V2.97308C5.86229 2.60842 6.15909 2.31177 6.5236 2.31177H14.4695C15.0655 2.31177 15.5485 1.82869 15.5485 1.23279C15.5485 0.636894 15.0655 0.153809 14.4695 0.153809H6.5236C4.96917 0.153809 3.70433 1.4185 3.70433 2.97308V10.9426C2.68341 11.2076 1.92643 12.1343 1.92643 13.2369V15.7026C1.92643 17.0111 2.99086 18.0754 4.29921 18.0754H7.18274V23.1063L2.78224 27.0122C1.01415 28.5815 0 30.8374 0 33.2017V68.3494C0 71.4213 2.49913 73.9203 5.57082 73.9203H34.9791C37.4494 73.9203 39.5476 72.3035 40.2747 70.0728C41.5325 69.922 42.8191 69.6571 44.1295 69.2748C46.5269 68.5754 48.7781 67.645 50.6394 66.5844C62.7548 59.6811 62.895 51.5885 62.895 51.5075C62.895 51.1682 62.7352 50.8482 62.4635 50.6445ZM45.5261 40.2754C47.2222 39.5606 48.5513 39.3624 49.2797 39.3115C49.5172 40.0047 49.8513 41.3071 49.8516 43.1484C49.8519 44.7594 49.5868 46.9965 48.6209 49.7617C46.8136 50.2507 44.9513 50.9331 43.0508 51.8068C42.676 51.9791 42.2967 52.1662 41.9146 52.3666L43.5561 49.8923C43.651 49.8955 43.7516 49.8978 43.8601 49.8978C44.7929 49.8978 46.1802 49.7518 47.2149 49.0114C47.6995 48.6645 47.8112 47.9906 47.4645 47.506C47.1177 47.0213 46.4439 46.9096 45.9592 47.2563C45.7178 47.4292 45.4014 47.5433 45.0655 47.6168L46.7482 45.0802C47.0777 44.5837 46.9421 43.914 46.4455 43.5847C45.9489 43.2552 45.279 43.3906 44.95 43.8874L43.2655 46.4265C43.2032 46.089 43.1859 45.7526 43.2518 45.4602C43.3829 44.8789 43.0178 44.3014 42.4364 44.1703C41.8547 44.0389 41.2776 44.4044 41.1465 44.9856C40.8343 46.3708 41.3746 47.8719 41.7576 48.6996L39.9141 51.4786C39.8512 51.1406 39.8333 50.8047 39.8986 50.515C40.0297 49.9336 39.6646 49.3562 39.0832 49.2251C38.5014 49.0942 37.9244 49.4592 37.7933 50.0404C37.4811 51.4255 38.0214 52.9267 38.4043 53.7542C38.4043 53.7542 37.4344 55.2235 37.4143 55.2646C37.2996 55.3522 37.1852 55.4405 37.0712 55.53C36.8787 55.681 36.6906 55.8338 36.5051 55.9878C36.5043 55.8357 36.5172 55.6952 36.5456 55.5697C36.6767 54.9884 36.3116 54.4109 35.7303 54.2798C35.1484 54.1486 34.5715 54.5139 34.4404 55.0951C34.2383 55.9913 34.3969 56.9386 34.6339 57.7131C33.1184 59.2707 31.9188 60.9561 31.0555 62.7497C30.9778 62.9111 30.9038 63.0699 30.8332 63.2266C30.8257 63.1307 30.8188 63.0337 30.8126 62.9349C30.6496 60.3125 31.1736 57.5289 32.37 54.6606C33.2675 52.5088 34.3568 50.5268 35.52 48.9288C39.3696 43.64 43.0862 41.3038 45.5261 40.2754ZM4.29921 15.9174C4.18078 15.9174 4.0844 15.821 4.0844 15.7026V13.2369C4.0844 13.1184 4.18078 13.0221 4.29921 13.0221H36.2508C36.3693 13.0221 36.4657 13.1184 36.4657 13.2369V15.7026C36.4657 15.821 36.3693 15.9174 36.2508 15.9174H4.29921ZM31.2092 18.0754V22.5125H9.34071V18.0754H31.2092ZM2.15796 33.2019C2.15796 31.4541 2.90759 29.7864 4.21464 28.6263L8.67162 24.6704H31.8783L36.3354 28.6263C37.6425 29.7864 38.3921 31.4542 38.3921 33.2019V36.6716H2.15796V33.2019ZM2.15796 38.8296H38.3921V42.4325C36.8969 43.7966 35.3406 45.5081 33.7751 47.6588C32.5141 49.3909 31.3396 51.5249 30.3782 53.8297C29.0593 56.9916 28.4807 60.0865 28.6569 63.0297H2.15796V38.8296ZM34.9791 71.7625H5.57082C3.68891 71.7625 2.15796 70.2314 2.15796 68.3495V65.1876H28.9154C29.0213 65.7438 29.1553 66.2672 29.3233 66.7713C29.5019 67.3074 29.6835 68.0982 30.2108 68.3997C30.5227 68.5779 30.8391 68.7414 31.1511 68.8858C32.1973 69.3693 33.343 69.7099 34.7568 69.9575C35.7536 70.1322 36.7779 70.2199 37.8267 70.2218C37.2162 71.1482 36.1693 71.7625 34.9791 71.7625Z" fill="#EAAB00"/>
<path d="M52.3924 54.5206C52.791 54.0776 52.7546 53.3954 52.3115 52.9969C51.8683 52.5984 51.1862 52.6347 50.7877 53.0779C49.8384 54.1335 49.576 55.7072 49.5056 56.6165L46.5392 58.1398C46.6496 57.8142 46.7981 57.5125 46.9967 57.2916C47.395 56.8486 47.3589 56.1664 46.9157 55.7679C46.4728 55.3695 45.7903 55.4057 45.3919 55.8489C44.4426 56.9045 44.1803 58.4782 44.1098 59.3875L41.1434 60.9105C41.2538 60.5849 41.4023 60.2832 41.6009 60.0624C41.9994 59.6193 41.9631 58.9371 41.5199 58.5386C41.0767 58.1402 40.3945 58.1764 39.9962 58.6196C39.0469 59.6752 38.7845 61.249 38.714 62.1582L36.933 63.0728C36.4029 63.3451 36.1939 63.9955 36.466 64.5255C36.6572 64.898 37.0351 65.1119 37.4267 65.1119C37.5927 65.1119 37.7611 65.0735 37.9187 64.9925L39.7 64.0777C40.4043 64.5045 41.6399 65.1197 42.9124 65.1197C43.049 65.1197 43.186 65.1125 43.3226 65.0974C43.9149 65.0317 44.3419 64.4983 44.2761 63.9062C44.2105 63.3139 43.6764 62.886 43.0849 62.9527C42.7897 62.9854 42.4578 62.9302 42.1291 62.8303L45.0956 61.307C45.7998 61.7338 47.0356 62.349 48.3083 62.349C48.4449 62.349 48.5818 62.3418 48.7185 62.3266C49.3108 62.2611 49.7378 61.7276 49.672 61.1354C49.6064 60.5431 49.0725 60.1149 48.4808 60.1819C48.1853 60.2136 47.8541 60.1586 47.526 60.059L50.4915 58.5362C51.1957 58.9629 52.4315 59.5781 53.7041 59.5781C53.8407 59.5781 53.9776 59.5709 54.1143 59.5558C54.7066 59.4902 55.1336 58.9567 55.0678 58.3646C55.0021 57.7723 54.4684 57.3437 53.8766 57.4111C53.5812 57.4431 53.25 57.388 52.9216 57.2883L55.6285 55.8983C56.1586 55.626 56.3676 54.9756 56.0955 54.4456C55.8232 53.9152 55.1721 53.7066 54.6428 53.9786L51.9349 55.3692C52.0455 55.0432 52.1939 54.7414 52.3924 54.5206Z" fill="#EAAB00"/>
</svg>
