<svg width="63" height="64" viewBox="0 0 63 64" fill="none" xmlns="http://www.w3.org/2000/svg">
<path fill-rule="evenodd" clip-rule="evenodd" d="M49.1697 2.30378C49.2806 1.64304 48.8347 1.01737 48.1739 0.906474C47.5136 0.795946 46.8874 1.24157 46.7766 1.90231C45.5902 8.97438 46.4618 16.192 49.2971 22.7753C50.4133 25.3669 51.3024 28.03 51.9684 30.7358H36.5346C35.8645 30.7358 35.3214 31.2791 35.3214 31.9491C35.3214 32.619 35.8645 33.1623 36.5346 33.1623H52.5025C52.7009 34.1807 52.8693 35.2036 53.0046 36.2304C49.1701 37.5622 45.5819 39.4556 42.3265 41.8696C38.8457 44.4508 35.8207 47.5745 33.3245 51.1589H28.7944C26.2981 47.5744 23.273 44.4507 19.7924 41.8696C16.5371 39.4556 12.9489 37.5622 9.11431 36.2304C9.24971 35.2038 9.41799 34.1807 9.61636 33.1623H25.6151C26.2852 33.1623 26.8283 32.619 26.8283 31.9491C26.8283 31.2791 26.2852 30.7358 25.6151 30.7358H10.1506C10.8166 28.0299 11.7058 25.3668 12.8219 22.7752C15.6572 16.192 16.5288 8.97426 15.3424 1.90231C15.2315 1.24157 14.6057 0.795946 13.9451 0.906474C13.2843 1.01737 12.8384 1.64292 12.9493 2.30378C14.0583 8.91457 13.2435 15.6617 10.5933 21.8156C5.45113 33.7552 4.8553 47.1321 8.91558 59.4817L9.80065 62.1741C9.96856 62.6848 10.4432 63.0088 10.953 63.0088C11.0786 63.0088 11.2063 62.9891 11.3321 62.9478C11.9687 62.7383 12.3151 62.0527 12.1058 61.4163L11.2206 58.7239C9.08216 52.2194 8.29985 45.4166 8.85043 38.7102C16.2291 41.3906 22.451 46.2128 26.9344 52.7359V61.7952C26.9344 62.4651 27.4775 63.0084 28.1476 63.0084C28.8177 63.0084 29.3609 62.4651 29.3609 61.7952V53.5854H32.758V61.7952C32.758 62.4651 33.3012 63.0084 33.9712 63.0084C34.6413 63.0084 35.1845 62.4651 35.1845 61.7952V52.7359C39.6679 46.2128 45.8899 41.3906 53.2684 38.7102C53.819 45.4166 53.0367 52.2194 50.8982 58.7241L50.013 61.4163C49.8037 62.0527 50.1501 62.7383 50.7866 62.9478C50.9124 62.9891 51.0402 63.0088 51.1657 63.0088C51.6756 63.0088 52.1502 62.6848 52.3181 62.1741L53.2033 59.4819C57.2636 47.1321 56.6677 33.7552 51.5256 21.8154C48.8755 15.6618 48.0607 8.91481 49.1697 2.30378ZM31.0592 26.5806C31.7293 26.5806 32.2725 26.0373 32.2725 25.3673V24.3967C32.2725 23.7268 31.7293 23.1835 31.0592 23.1835C30.3892 23.1835 29.846 23.7268 29.846 24.3967V25.3673C29.846 26.0373 30.3892 26.5806 31.0592 26.5806ZM57.2153 12.092H60.9053C61.5754 12.092 62.1186 12.6353 62.1186 13.3053C62.1186 13.9752 61.5754 14.5185 60.9053 14.5185H57.2153C57.4718 14.9801 57.4049 15.5731 57.013 15.965C56.7762 16.2018 56.4656 16.3204 56.1551 16.3204C55.8447 16.3204 55.5342 16.2018 55.2972 15.965L53.4955 14.1632C53.2681 13.9356 53.1402 13.627 53.1402 13.3053C53.1402 12.9835 53.2681 12.6749 53.4955 12.4474L55.2972 10.6457C55.771 10.172 56.5393 10.1721 57.013 10.6457C57.4049 11.0376 57.4717 11.6305 57.2153 12.092ZM8.62304 14.1632C8.85053 13.9356 8.9784 13.6271 8.9784 13.3053C8.9784 12.9836 8.85053 12.6749 8.62304 12.4474L6.82134 10.6457C6.34756 10.1721 5.57932 10.1721 5.10554 10.6457C4.71366 11.0376 4.64693 11.6305 4.90329 12.0921H1.21327C0.543179 12.0921 0 12.6354 0 13.3053C0 13.9753 0.543179 14.5186 1.21327 14.5186H4.90329C4.64681 14.9801 4.71366 15.5732 5.10554 15.965C5.34249 16.2019 5.65297 16.3204 5.96344 16.3204C6.27391 16.3204 6.58451 16.2019 6.82134 15.965L8.62304 14.1632ZM30.2173 31.0915C30.443 30.8657 30.756 30.736 31.0751 30.736C31.3942 30.736 31.706 30.8657 31.9329 31.0915C32.1585 31.3172 32.2883 31.6302 32.2883 31.9493C32.2883 32.2684 32.1585 32.5814 31.9329 32.8069C31.7072 33.0327 31.3942 33.1625 31.0751 33.1625C30.756 33.1625 30.443 33.0326 30.2173 32.8069C29.9904 32.5814 29.8618 32.2684 29.8618 31.9493C29.8618 31.6302 29.9904 31.3172 30.2173 31.0915Z" fill="#EAAB00"/>
</svg>
